<svg width="24" height="24" viewBox="0 0 24 24" fill="none" xmlns="http://www.w3.org/2000/svg">
<path d="M15.1715 7.00016L8.58553 13.5862C8.39451 13.7707 8.24215 13.9913 8.13733 14.2354C8.03251 14.4794 7.97734 14.7418 7.97503 15.0074C7.97272 15.2729 8.02333 15.5363 8.12389 15.7821C8.22445 16.0279 8.37296 16.2512 8.56074 16.439C8.74853 16.6267 8.97183 16.7752 9.21762 16.8758C9.46342 16.9764 9.72678 17.027 9.99233 17.0247C10.2579 17.0224 10.5203 16.9672 10.7643 16.8624C11.0083 16.7575 11.229 16.6052 11.4135 16.4142L17.8275 9.82816C18.5562 9.07376 18.9593 8.06335 18.9502 7.01456C18.9411 5.96577 18.5204 4.96252 17.7788 4.22089C17.0372 3.47926 16.0339 3.05858 14.9851 3.04947C13.9363 3.04035 12.9259 3.44353 12.1715 4.17216L5.75653 10.7572C4.63122 11.8825 3.99902 13.4087 3.99902 15.0002C3.99902 16.5916 4.63122 18.1179 5.75653 19.2432C6.88184 20.3685 8.4081 21.0007 9.99953 21.0007C11.591 21.0007 13.1172 20.3685 14.2425 19.2432L20.4995 13.0002" stroke="black" stroke-width="2" stroke-linecap="round" stroke-linejoin="round"/>
</svg>
