<svg width="60" height="60" viewBox="0 0 60 60" fill="none" xmlns="http://www.w3.org/2000/svg">
<rect width="60" height="60" rx="30" fill="#E6E7FD"/>
<rect x="44.25" y="44.25" width="13.5" height="13.5" rx="6.75" fill="#12B76A"/>
<rect x="44.25" y="44.25" width="13.5" height="13.5" rx="6.75" stroke="white" stroke-width="1.5"/>
<path d="M40 41.25V38.75C40 37.4239 39.4732 36.1521 38.5355 35.2145C37.5979 34.2768 36.3261 33.75 35 33.75H25C23.6739 33.75 22.4021 34.2768 21.4645 35.2145C20.5268 36.1521 20 37.4239 20 38.75V41.25" stroke="#3D56F5" stroke-width="1.5" stroke-linecap="round" stroke-linejoin="round"/>
<path d="M30 28.75C32.7614 28.75 35 26.5114 35 23.75C35 20.9886 32.7614 18.75 30 18.75C27.2386 18.75 25 20.9886 25 23.75C25 26.5114 27.2386 28.75 30 28.75Z" stroke="#3D56F5" stroke-width="1.5" stroke-linecap="round" stroke-linejoin="round"/>
</svg>
