<svg width="78" height="78" viewBox="0 0 78 78" fill="none" xmlns="http://www.w3.org/2000/svg">
<path d="M30.6667 47.3333L39 39M39 39L47.3333 30.6667M39 39L30.6667 30.6667M39 39L47.3333 47.3333M76.5 39C76.5 43.9246 75.53 48.8009 73.6455 53.3506C71.7609 57.9003 68.9987 62.0343 65.5165 65.5165C62.0343 68.9987 57.9003 71.7609 53.3506 73.6455C48.8009 75.53 43.9246 76.5 39 76.5C34.0754 76.5 29.1991 75.53 24.6494 73.6455C20.0997 71.7609 15.9657 68.9987 12.4835 65.5165C9.0013 62.0343 6.23907 57.9003 4.35452 53.3506C2.46997 48.8009 1.5 43.9246 1.5 39C1.5 29.0544 5.45088 19.5161 12.4835 12.4835C19.5161 5.45088 29.0544 1.5 39 1.5C48.9456 1.5 58.4839 5.45088 65.5165 12.4835C72.5491 19.5161 76.5 29.0544 76.5 39Z" stroke="#DB4040" stroke-width="2" stroke-linecap="round" stroke-linejoin="round"/>
</svg>
