<svg width="60" height="60" viewBox="0 0 60 60" fill="none" xmlns="http://www.w3.org/2000/svg">
<path d="M30.9942 35.3173C36.1539 35.3489 46.8503 35.8334 46.8503 43.2628C46.8503 50.7291 35.7688 51.216 30.9188 51.2478L30.0006 51.25C29.0451 51.25 28.2697 50.4703 28.2697 49.5096C28.2697 48.5489 29.0451 47.7692 30.0006 47.7692C36.1072 47.7692 43.3885 46.9872 43.3885 43.2628C43.3885 40.2972 38.8858 38.7959 30.0006 38.7959C23.894 38.7959 16.6127 39.5779 16.6127 43.3046C16.6127 44.1353 16.855 45.2051 18.7451 46.1356C19.5206 46.5185 20.5037 46.8387 21.6623 47.087C22.597 47.2866 23.1947 48.2125 22.9939 49.1523C22.7954 50.0921 21.8723 50.7 20.9422 50.4912C19.5067 50.1826 18.2559 49.7695 17.222 49.2636C13.8571 47.6045 13.1509 45.1076 13.1509 43.3046C13.1509 35.8362 24.2324 35.3491 29.0823 35.3173L30.9942 35.3173ZM47.6737 33.7444C48.9546 33.8302 50.2424 34.0182 51.5071 34.299C54.325 34.8605 56.1828 36.0138 56.9928 37.7194C57.669 39.1465 57.669 40.7801 56.9928 42.2072C56.192 43.8989 54.3388 45.0568 51.4794 45.6485C51.364 45.6741 51.2463 45.6857 51.1286 45.6857C50.3254 45.6857 49.6054 45.1171 49.4369 44.2957C49.2454 43.3536 49.8477 42.4323 50.7847 42.2397C53.1456 41.7501 53.7272 41.0075 53.868 40.7105C54.0919 40.2371 54.0919 39.6918 53.868 39.2184C53.5726 38.5942 52.4256 38.0303 50.7962 37.7055C49.6631 37.4548 48.5461 37.2901 47.4429 37.2158C46.4875 37.1532 45.7674 36.3201 45.832 35.3618C45.8944 34.4034 46.7275 33.6933 47.6737 33.7444ZM12.3448 33.7086C13.2679 33.6367 14.1241 34.3676 14.1887 35.326C14.2534 36.2867 13.5333 37.1174 12.5778 37.1801C11.4655 37.2544 10.3485 37.4191 9.25684 37.6651C7.58133 37.9969 6.42971 38.5631 6.13199 39.1897C5.90813 39.6654 5.90813 40.2153 6.13199 40.691C6.27508 40.9904 6.85666 41.7352 9.22684 42.2249C10.1638 42.4175 10.7662 43.3364 10.5746 44.2785C10.4085 45.1023 9.6861 45.6685 8.88066 45.6685C8.76526 45.6685 8.64987 45.6569 8.53217 45.6337C5.66812 45.0443 3.81029 43.884 3.00715 42.1854C2.33095 40.7583 2.33095 39.1224 3.00715 37.6953C3.81952 35.9804 5.68196 34.8225 8.54371 34.2563C9.76457 33.9824 11.0593 33.7945 12.3448 33.7086ZM30.0013 8.75C36.2971 8.75 41.4206 13.8992 41.4206 20.2318C41.4206 26.5645 36.2971 31.7137 30.0013 31.7137C27.4234 31.7137 24.9932 30.8806 22.9761 29.3027C22.2215 28.7133 22.0853 27.6203 22.6715 26.8615C23.2554 26.1004 24.347 25.9658 25.1017 26.5575C26.5049 27.6528 28.1988 28.2329 30.0013 28.2329C34.3908 28.2329 37.9588 24.6431 37.9588 20.2318C37.9588 15.8206 34.3908 12.2308 30.0013 12.2308C25.6117 12.2308 22.0415 15.8206 22.0415 20.2318C22.0415 21.1925 21.266 21.9722 20.3106 21.9722C19.3551 21.9722 18.5797 21.1925 18.5797 20.2318C18.5797 13.8992 23.7031 8.75 30.0013 8.75ZM44.2082 11.1276C49.1794 11.1276 53.225 15.1931 53.225 20.1938C53.225 25.1922 49.1794 29.26 44.2082 29.26C43.2528 29.26 42.4773 28.4803 42.4773 27.5196C42.4773 26.5589 43.2528 25.7792 44.2082 25.7792C47.2708 25.7792 49.7632 23.2731 49.7632 20.1938C49.7632 17.1145 47.2708 14.6083 44.2082 14.6083C43.2528 14.6083 42.4773 13.8287 42.4773 12.868C42.4773 11.905 43.2528 11.1276 44.2082 11.1276ZM15.8209 11.0315C16.7763 11.0315 17.5517 11.8112 17.5517 12.7719C17.5517 13.7326 16.7763 14.5123 15.8209 14.5123C12.7468 14.5123 10.2451 17.0277 10.2451 20.1186C10.2451 23.2095 12.7468 25.7226 15.8209 25.7226C16.7763 25.7226 17.5517 26.5023 17.5517 27.463C17.5517 28.4237 16.7763 29.2034 15.8209 29.2034C10.8382 29.2034 6.78327 25.1286 6.78327 20.1186C6.78327 15.1086 10.8382 11.0315 15.8209 11.0315Z" fill="#2264D1"/>
</svg>
