<svg width="60" height="60" viewBox="0 0 60 60" fill="none" xmlns="http://www.w3.org/2000/svg">
<path d="M51.3984 21.9754C52.4026 21.9875 53.2102 22.8032 53.2102 23.8052V39.9868C53.2102 49.2461 47.4214 55 38.1417 55H30.7622C29.7457 55 28.9183 54.1843 28.9062 53.1702C28.9182 52.1524 29.7422 51.3303 30.7622 51.3184H38.1417C45.455 51.3184 49.4983 47.306 49.5646 39.9868V23.8052C49.5646 22.7947 50.3856 21.9754 51.3984 21.9754ZM36.3079 6.94022C37.3243 6.95229 38.1417 7.77786 38.1417 8.79206C38.1417 9.2812 37.9455 9.74999 37.5968 10.0938C37.2481 10.4376 36.776 10.6278 36.2858 10.6219H20.0464C12.7331 10.6219 8.68978 14.6562 8.68978 21.9754V39.9868C8.68978 47.306 12.7331 51.3184 20.0464 51.3184C21.0664 51.3303 21.8904 52.1524 21.9023 53.1702C21.8902 54.1843 21.0628 55 20.0464 55C10.7667 55 5 49.2461 5 39.9868V21.9754C5 12.6942 10.7667 6.94022 20.0464 6.94022H36.3079ZM39.1014 23.6854C39.7467 23.2459 40.616 23.2585 41.2526 23.7471C41.9688 24.2968 42.177 25.2851 41.7431 26.0759L34.6729 35.1809C34.3634 35.5621 33.9219 35.8138 33.4356 35.8863C32.9516 35.9354 32.4676 35.7929 32.0879 35.4895L25.3048 30.1765L19.2068 38.0909C18.916 38.4856 18.4787 38.7475 17.9928 38.818C17.5069 38.8884 17.0131 38.7615 16.6217 38.4657C15.823 37.8409 15.6754 36.6919 16.2903 35.8863L23.5152 26.4948C23.8166 26.1054 24.2609 25.8517 24.75 25.7897C25.2391 25.7277 25.7329 25.8624 26.1223 26.1641L32.9053 31.4772L38.8709 23.8714L39.1014 23.6854ZM46.0029 5.49991C48.4295 4.48975 51.227 5.03882 53.0894 6.89076C54.9518 8.7427 55.5116 11.5322 54.5075 13.9569C53.5034 16.3815 51.1334 17.9631 48.5041 17.9631C44.9252 17.9631 42.0205 15.0747 42.0082 11.5037L42.023 11.0436C42.1878 8.60606 43.719 6.45064 46.0029 5.49991ZM48.5041 8.70388C46.9543 8.70388 45.6981 9.9574 45.6981 11.5037C45.6981 13.05 46.9543 14.3035 48.5041 14.3035C50.0538 14.3035 51.3101 13.05 51.3101 11.5037C51.3101 9.9574 50.0538 8.70388 48.5041 8.70388Z" fill="#2264D1"/>
</svg>
