<svg width="193" height="197" viewBox="0 0 193 197" fill="none" xmlns="http://www.w3.org/2000/svg">
<path d="M189.128 117.737C185.045 130.369 179.159 142.11 171.718 152.468C170.355 154.387 168.935 156.271 167.458 158.122C163.869 162.62 160.008 166.815 155.904 170.675C154.136 172.34 152.316 173.942 150.444 175.479C147.732 177.712 144.918 179.803 142.002 181.751C140.401 182.817 138.772 183.835 137.114 184.806C135.833 185.557 134.535 186.276 133.218 186.963C125.462 191.035 117.272 193.88 108.866 195.423C107.791 195.619 106.709 195.793 105.618 195.946C104.757 196.069 103.89 196.176 103.019 196.268C102.257 196.351 101.495 196.422 100.731 196.483C99.1147 196.611 97.4855 196.689 95.8434 196.717C91.8021 196.79 87.761 196.564 83.7443 196.043C81.3821 195.739 78.9972 195.33 76.5898 194.814C73.7685 194.207 71.0216 193.498 68.3491 192.685C66.5435 192.139 64.773 191.549 63.0377 190.914C60.963 190.16 58.9393 189.346 56.9667 188.469C52.2079 186.371 47.5929 183.856 43.1614 180.946C38.5138 177.903 34.099 174.403 29.9654 170.484C28.618 169.206 27.3193 167.898 26.0694 166.559C24.3534 164.73 22.7242 162.85 21.182 160.918C5.0438 140.757 -1.54646 115.77 1.97069 95.6466C9.13865 54.6261 38.1672 42.5782 63.0465 45.8262C70.8064 46.7763 78.3503 49.3748 85.3027 53.4925C89.0333 55.7861 92.9865 57.5533 97.078 58.7564C98.8254 59.2711 100.595 59.6781 102.379 59.9759C103.665 60.193 104.947 60.3554 106.226 60.4631C107.867 60.6068 109.504 60.6653 111.129 60.6497C111.759 60.6435 112.389 60.6286 113.019 60.6005C128.274 59.9541 142.591 53.3082 155.5 50.8449C175.975 46.9403 203.034 73.6432 189.128 117.737Z" fill="#4786D1"/>
<path d="M189.128 117.737C185.045 130.369 179.159 142.11 171.718 152.468C170.355 154.387 168.935 156.271 167.458 158.122C163.868 162.62 160.007 166.815 155.904 170.675C154.136 172.34 152.316 173.942 150.444 175.479C147.732 177.712 144.918 179.803 142.001 181.751C140.401 182.817 138.772 183.835 137.114 184.806C135.833 185.557 134.535 186.276 133.218 186.963C125.462 191.035 117.272 193.88 108.866 195.423C107.791 195.619 106.709 195.793 105.618 195.946C104.757 196.069 103.89 196.176 103.019 196.268C102.257 196.351 101.495 196.422 100.731 196.483C99.1145 196.611 97.4854 196.689 95.8432 196.717C91.802 196.79 87.7609 196.565 83.7442 196.043C81.3819 195.739 78.9971 195.33 76.5896 194.814C73.7684 194.207 71.0215 193.498 68.3489 192.685C66.5433 192.139 64.7729 191.549 63.0376 190.914V45.8277C70.7976 46.7778 78.3414 49.3764 85.2938 53.494C89.0245 55.7877 92.9776 57.5548 97.0691 58.7579C98.8165 59.2726 100.586 59.6797 102.37 59.9775C103.656 60.1945 104.939 60.3569 106.217 60.4647C107.858 60.6083 109.495 60.6669 111.12 60.6513C111.75 60.645 112.38 60.6302 113.01 60.6021C128.265 59.9556 142.582 53.3098 155.491 50.8465C175.974 46.9403 203.033 73.6432 189.128 117.737Z" fill="#2264D1"/>
<path d="M108.865 163.36V195.421C107.79 195.617 106.708 195.792 105.617 195.945C104.756 196.068 103.889 196.175 103.018 196.266V163.36H108.865Z" fill="#4A9AE2"/>
<path d="M108.865 163.36H103.018V172.754H108.865V163.36Z" fill="#4788D6"/>
<path d="M66.7944 164.889H134.257L135.457 156.371H66.7944V164.889Z" fill="#5AA3E7"/>
<path d="M105.903 55.4592H140.687C141.977 55.4594 143.252 55.7889 144.42 56.4246C145.589 57.0603 146.623 57.9865 147.449 59.1378C148.276 60.2891 148.875 61.6375 149.204 63.0874C149.533 64.5374 149.583 66.0537 149.353 67.529L135.456 156.372H82.7673L97.2369 63.8665C97.606 61.5074 98.6756 59.3737 100.259 57.8373C101.843 56.3009 103.841 55.4593 105.903 55.4592Z" fill="#5AA3E7"/>
<path d="M101.173 55.4592H135.956C137.247 55.4594 138.521 55.7889 139.689 56.4246C140.858 57.0603 141.892 57.9865 142.718 59.1378C143.545 60.2891 144.144 61.6375 144.473 63.0874C144.802 64.5374 144.852 66.0537 144.622 67.529L130.725 156.372H78.0364L92.5066 63.868C92.8751 61.5087 93.9445 59.3745 95.5282 57.8378C97.1119 56.301 99.1095 55.4593 101.173 55.4592Z" fill="#6AACEC"/>
<path d="M105.636 141.519C105.636 141.739 105.626 141.966 105.618 142.196C105.582 144.522 105.128 146.814 104.287 148.924C103.445 151.035 102.234 152.918 100.73 154.454C100.009 155.175 99.2313 155.817 98.4081 156.372C97.5775 156.934 96.7211 157.442 95.8428 157.895C89.9041 160.983 82.5575 162.112 77.3274 162.515C73.3643 162.822 70.6156 162.706 70.6156 162.706L56.9662 188.471C52.2074 186.373 47.5924 183.858 43.1609 180.948C49.2769 168.478 57.1771 152.38 59.8445 146.981C60.9414 144.763 63.2582 142.967 66.1526 141.521C75.329 136.931 90.2863 135.84 90.2863 135.84L93.9237 135.641L100.733 135.267L104.945 135.038C104.945 135.038 105.004 135.253 105.085 135.641C105.152 135.947 105.23 136.364 105.309 136.87C105.548 138.404 105.657 139.961 105.636 141.519Z" fill="#202070"/>
<path d="M128.749 141.519C128.682 146.22 127.323 152.421 121.521 156.37C116.895 159.517 110.874 161.117 105.618 161.925C103.878 162.192 102.222 162.37 100.73 162.492C98.756 162.648 97.0659 162.707 95.8427 162.722C94.512 162.737 93.7288 162.704 93.7288 162.704L83.7436 196.042C81.3814 195.738 78.9966 195.329 76.5891 194.813C73.7679 194.207 71.021 193.497 68.3484 192.684C70.3548 185.585 73.9868 172.961 77.3273 162.513C79.5044 155.699 81.5592 149.806 82.955 146.975C84.0519 144.757 86.3714 142.962 89.2632 141.516C92.9618 139.797 96.8051 138.534 100.73 137.747C102.319 137.397 103.87 137.107 105.307 136.865C109.93 136.089 113.4 135.835 113.4 135.835L116.33 135.679L117.034 135.639L128.056 135.035L128.079 135.127C128.104 135.222 128.147 135.397 128.196 135.639C128.591 137.564 128.777 139.54 128.749 141.519Z" fill="#34318B"/>
<path d="M116.133 117.736C116.133 118.392 116.131 119.047 116.127 119.7C116.109 127.976 116.014 135.639 116.014 135.639L100.73 132.453C100.73 132.453 100.435 125.421 100.394 119.7C100.389 119.023 100.389 118.364 100.394 117.736C100.405 115.108 100.497 113.042 100.734 112.57C100.784 112.442 100.816 112.305 100.831 112.166C100.895 111.759 100.958 111.084 101.019 110.199C101.111 108.804 101.198 106.884 101.277 104.631C101.301 104 101.324 103.345 101.345 102.665C101.4 100.924 101.452 99.0433 101.5 97.0938C101.516 96.445 101.531 95.7891 101.548 95.1302C101.592 93.2884 101.631 91.4137 101.668 89.5594C101.682 88.9012 101.695 88.2423 101.708 87.5927C101.745 85.6626 101.775 83.781 101.808 82.0227C101.819 81.3461 101.829 80.6913 101.84 80.0583C101.927 74.8616 101.982 71.1303 102.001 71.0413C102.064 70.7501 105.256 65.1427 105.256 65.1427L112.838 62.9948L116.016 67.239C116.016 67.239 115.961 72.9315 115.924 80.0583C115.922 80.7017 115.919 81.3565 115.916 82.0227C115.909 83.8364 115.904 85.7142 115.901 87.5927C115.901 88.2485 115.901 88.9075 115.901 89.5594C115.901 91.4598 115.901 93.3407 115.909 95.1302C115.909 95.7977 115.914 96.4535 115.919 97.0938C115.932 99.1565 115.951 101.053 115.986 102.665C115.996 103.289 116.01 103.872 116.023 104.405C116.023 104.478 116.028 104.555 116.028 104.631C116.07 106.25 116.099 108.149 116.115 110.199C116.121 110.842 116.125 111.498 116.129 112.166C116.13 113.971 116.133 115.855 116.133 117.736Z" fill="white"/>
<path d="M115.922 80.0586C115.919 80.702 115.916 81.3568 115.914 82.023H101.808C101.818 81.3464 101.829 80.6916 101.839 80.0586H115.922Z" fill="#EFEFF4"/>
<path d="M115.898 87.593C115.898 88.2488 115.898 88.9078 115.898 89.5597H101.666C101.679 88.9015 101.693 88.2426 101.706 87.593H115.898Z" fill="#EFEFF4"/>
<path d="M115.914 97.0941H101.497C101.513 96.4453 101.529 95.7894 101.545 95.1305H115.904C115.906 95.798 115.909 96.4538 115.914 97.0941Z" fill="#EFEFF4"/>
<path d="M116.019 104.632H101.274C101.297 104.001 101.32 103.345 101.341 102.665H115.976C115.986 103.289 116 103.872 116.013 104.405C116.017 104.479 116.019 104.555 116.019 104.632Z" fill="#EFEFF4"/>
<path d="M116.12 112.166H100.828C100.891 111.759 100.955 111.085 101.015 110.199H116.107C116.112 110.844 116.117 111.499 116.12 112.166Z" fill="#EFEFF4"/>
<path d="M116.133 117.737C116.133 118.392 116.131 119.047 116.127 119.7H100.393C100.388 119.023 100.388 118.364 100.393 117.737H116.133Z" fill="#EFEFF4"/>
<path d="M93.0677 103.705L88.2165 124.126L67.6396 125.266L65.5728 116.509L78.9998 112.695L82.0004 95.6497L88.3146 96.7748L93.0677 103.705Z" fill="url(#paint0_linear_57_7401)"/>
<path d="M131.438 133.73C130.937 135.768 115.026 136.64 113.934 134.927C113.438 134.147 112.403 125.344 111.87 113.25C111.23 98.7391 111.316 79.4942 113.929 63.69L122.293 67.9123L124.974 72.5727L130.186 79.997C130.186 79.997 129.964 93.3035 129.73 102.128C129.714 102.674 129.701 103.2 129.685 103.706C129.434 112.415 131.939 131.69 131.438 133.73Z" fill="url(#paint1_linear_57_7401)"/>
<path d="M131.438 133.73C130.937 135.768 115.026 136.64 113.934 134.927C113.438 134.147 112.403 125.344 111.87 113.25C114.227 112.144 117.619 109.071 118.276 100.507C119.301 87.1237 124.389 79.9259 124.389 79.9259C125.687 86.1336 125.687 92.6126 124.389 98.8203L129.727 102.129C129.711 102.676 129.698 103.202 129.682 103.707C129.434 112.415 131.939 131.69 131.438 133.73Z" fill="url(#paint2_linear_57_7401)"/>
<path d="M101.998 134.925C101.998 134.925 88.0935 135.33 88.3434 134.601C89.9227 130.794 91.2968 126.877 92.4577 122.872C93.8206 117.697 94.356 97.9069 94.356 97.9069L93.0669 103.703C93.0527 103.7 93.0385 103.696 93.0246 103.692C92.7559 103.613 91.2721 103.165 89.4369 102.598C86.0111 101.541 81.3836 100.07 81.2654 99.7979C81.0753 99.3599 82.8285 90.3327 84.4574 84.0702C86.0864 77.8077 89.0923 69.5105 104.885 65.1406C101.885 77.2276 101.998 134.925 101.998 134.925Z" fill="url(#paint3_linear_57_7401)"/>
<path d="M133.52 103.703C133.52 103.703 128.383 127.112 123.825 127.22C119.266 127.328 98.8822 123.935 95.6397 123.607C93.4539 123.311 91.3263 122.591 89.345 121.478C89.345 121.478 84.6477 125.409 84.0384 124.425C83.4426 123.472 85.7654 119.78 85.8944 119.575C85.7359 119.731 82.1408 123.423 81.3603 122.516C80.5616 121.588 85.0722 113.723 87.7504 113.616C90.4285 113.509 96.3941 116.836 96.3941 116.836L118.279 114.65L119.072 110.737L121.149 100.503L133.52 103.703Z" fill="url(#paint4_linear_57_7401)"/>
<path d="M112.834 62.9928C112.834 62.9928 123.17 62.8835 130.78 69.3271C138.391 75.7707 138.942 85.0883 133.521 103.702C130.708 103.015 121.138 101.377 121.146 100.501C121.153 99.6261 124.773 78.9359 124.773 78.9359L112.834 62.9928Z" fill="url(#paint5_linear_57_7401)"/>
<path d="M122.982 113.864C122.914 114.314 118.276 114.651 118.276 114.651L119.069 110.739C121.036 112.154 123.013 113.637 122.982 113.864Z" fill="url(#paint6_linear_57_7401)"/>
<path d="M95.0742 78.8298C95.0742 78.8298 94.604 84.8416 94.3548 97.9069L93.0235 103.692C92.7548 103.613 91.2709 103.165 89.4358 102.598C91.2265 99.3637 92.293 95.6599 92.5385 91.824C92.8219 83.5268 95.0742 78.8298 95.0742 78.8298Z" fill="url(#paint7_linear_57_7401)"/>
<path d="M94.4179 42.5727C90.2841 42.8639 86.2121 35.4373 88.3421 32.6703C90.4722 29.9033 93.4781 32.6703 93.4781 32.6703C93.4781 32.6703 90.9101 30.1953 92.9145 27.283C94.919 24.3708 98.3018 29.7581 104.503 28.6658C110.704 27.5735 116.393 31.3813 115.214 37.4033C119.787 37.4033 118.409 44.6839 116.405 49.2709C114.4 53.8578 110.893 60.6286 106.758 55.5318C104.398 52.5583 101.571 50.1367 98.4287 48.3972L94.4179 42.5727Z" fill="url(#paint8_linear_57_7401)"/>
<path d="M109.577 69.7667C106.226 70.4561 104.566 68.4191 103.878 67.0738C103.459 66.2556 103.408 64.9993 103.1 63.4948C102.882 62.369 102.51 61.2912 101.998 60.3023L111.142 52.3299C111.056 53.7118 111.627 56.0307 112.274 58.2215C113.025 60.7653 113.879 63.1403 113.929 63.6869C114.024 64.705 112.927 69.0741 109.577 69.7667Z" fill="url(#paint9_linear_57_7401)"/>
<path d="M112.274 58.2215C110.352 63.5986 106.79 64.6097 103.1 63.4948C102.882 62.369 102.51 61.2912 101.998 60.3023L111.142 52.3299C111.056 53.7118 111.627 56.0307 112.274 58.2215Z" fill="url(#paint10_linear_57_7401)"/>
<path d="M93.8545 40.1165C105.317 42.2464 109.733 40.1165 109.733 40.1165C109.733 40.1165 110.885 47.5704 111.681 47.8983C112.478 48.2262 111.939 43.9945 113.725 43.4753C115.51 42.9561 116.731 46.5874 115.534 48.69C115.264 49.2662 114.832 49.7168 114.31 49.9654C113.788 50.2141 113.208 50.2456 112.668 50.0548C112.668 50.0548 109.875 61.3875 102.638 61.5765C95.4008 61.7654 93.6644 50.9831 93.7584 47.9795C93.8525 44.9759 93.6637 41.9715 93.8545 40.1165Z" fill="url(#paint11_linear_57_7401)"/>
<path d="M94.335 124.126H64.3674C64.1925 124.126 64.0193 124.166 63.8577 124.244C63.6961 124.322 63.5493 124.436 63.4256 124.579C63.3019 124.723 63.2038 124.894 63.1368 125.082C63.0699 125.269 63.0354 125.471 63.0354 125.674C63.0354 126.085 63.1757 126.478 63.4255 126.769C63.6753 127.059 64.0142 127.222 64.3674 127.222H94.335C94.5099 127.222 94.6831 127.182 94.8447 127.104C95.0062 127.026 95.153 126.912 95.2767 126.769C95.4003 126.625 95.4984 126.454 95.5652 126.266C95.6321 126.078 95.6665 125.877 95.6664 125.674C95.6664 125.471 95.6319 125.269 95.565 125.082C95.4981 124.894 95.4001 124.723 95.2764 124.58C95.1528 124.436 95.006 124.322 94.8445 124.244C94.683 124.166 94.5099 124.126 94.335 124.126Z" fill="#202070"/>
<path d="M66.8274 88.1138H26.2372C25.9257 88.1007 25.6158 88.1714 25.3317 88.3203C25.0475 88.4692 24.7968 88.6924 24.5991 88.9724C24.4013 89.2525 24.2619 89.5818 24.1916 89.9347C24.1213 90.2877 24.122 90.6547 24.1938 91.0073L29.7872 127.222H75.3576L69.7642 91.0073C69.625 90.2119 69.2597 89.494 68.7271 88.9692C68.1944 88.4444 67.5253 88.1431 66.8274 88.1138Z" fill="#202070"/>
<path d="M49.3849 112.571L44.928 108.489L47.4967 104.406L51.9535 108.489L49.3849 112.571Z" fill="#4848AA"/>
<path d="M79.7021 125.674C79.7021 125.755 79.6815 125.834 79.6429 125.901C79.6043 125.968 79.5495 126.02 79.4853 126.051C79.4211 126.082 79.3504 126.09 79.2823 126.074C79.2141 126.059 79.1516 126.02 79.1024 125.963C79.0533 125.906 79.0198 125.833 79.0063 125.754C78.9927 125.674 78.9997 125.592 79.0263 125.518C79.0529 125.443 79.0979 125.379 79.1557 125.334C79.2134 125.289 79.2813 125.266 79.3508 125.266C79.444 125.266 79.5332 125.309 79.599 125.385C79.6649 125.462 79.702 125.566 79.7021 125.674Z" fill="#4848AA"/>
<path d="M84.9412 126.082C85.1352 126.082 85.2925 125.899 85.2925 125.674C85.2925 125.448 85.1352 125.266 84.9412 125.266C84.7471 125.266 84.5898 125.448 84.5898 125.674C84.5898 125.899 84.7471 126.082 84.9412 126.082Z" fill="#4848AA"/>
<path d="M86.5613 125.674C86.5613 125.73 86.5471 125.784 86.5205 125.83C86.4939 125.876 86.4562 125.912 86.412 125.934C86.3678 125.955 86.3192 125.96 86.2723 125.95C86.2254 125.939 86.1823 125.912 86.1485 125.873C86.1147 125.833 86.0916 125.783 86.0823 125.729C86.0729 125.674 86.0778 125.618 86.0961 125.566C86.1144 125.515 86.1453 125.471 86.1851 125.44C86.2249 125.409 86.2716 125.393 86.3195 125.393C86.3836 125.393 86.4451 125.422 86.4904 125.475C86.5358 125.528 86.5613 125.599 86.5613 125.674Z" fill="#4848AA"/>
<path d="M82.6661 125.955H81.3334C81.2692 125.955 81.2077 125.925 81.1624 125.873C81.117 125.82 81.0916 125.748 81.0916 125.674C81.0916 125.599 81.117 125.528 81.1624 125.475C81.2077 125.422 81.2692 125.393 81.3334 125.393H82.6661C82.6978 125.393 82.7293 125.4 82.7586 125.414C82.7879 125.428 82.8146 125.449 82.8371 125.475C82.8595 125.501 82.8773 125.532 82.8895 125.566C82.9016 125.6 82.9079 125.637 82.9079 125.674C82.9079 125.711 82.9016 125.747 82.8895 125.781C82.8773 125.816 82.8595 125.847 82.8371 125.873C82.8146 125.899 82.7879 125.919 82.7586 125.934C82.7293 125.948 82.6978 125.955 82.6661 125.955Z" fill="#4848AA"/>
<path d="M145.722 132.453H59.116C58.5192 132.453 57.9468 132.178 57.5248 131.687C57.1028 131.197 56.8657 130.531 56.8657 129.838C56.8657 129.144 57.1028 128.479 57.5248 127.988C57.9468 127.498 58.5192 127.222 59.116 127.222H145.722C146.319 127.222 146.891 127.498 147.313 127.988C147.735 128.479 147.972 129.144 147.972 129.838C147.972 130.531 147.735 131.197 147.313 131.687C146.891 132.178 146.319 132.453 145.722 132.453Z" fill="#89BEF5"/>
<path d="M104.257 132.453H17.6485C17.0517 132.453 16.4793 132.178 16.0573 131.687C15.6353 131.197 15.3982 130.531 15.3982 129.838C15.3982 129.144 15.6353 128.479 16.0573 127.988C16.4793 127.498 17.0517 127.222 17.6485 127.222H104.257C104.854 127.222 105.426 127.498 105.848 127.988C106.27 128.479 106.507 129.144 106.507 129.838C106.507 130.531 106.27 131.197 105.848 131.687C105.426 132.178 104.854 132.453 104.257 132.453Z" fill="#A9D0FF"/>
<path d="M100.73 132.453V196.481C99.1138 196.61 97.4847 196.688 95.8426 196.715V141.516H26.0632V166.561C24.3472 164.732 22.7181 162.852 21.1758 160.921V132.453H100.73Z" fill="#89BEF5"/>
<path d="M100.73 132.453H21.1758V135.64H100.73V132.453Z" fill="#6AACEC"/>
<path d="M142.004 132.453V181.747C140.404 182.812 138.774 183.83 137.116 184.801V141.519H105.62V195.945C104.008 196.172 102.379 196.351 100.733 196.481V132.453H142.004Z" fill="#6AACEC"/>
<path d="M142.003 132.453H100.73V135.64H142.003V132.453Z" fill="#4788D6"/>
<path d="M29.9619 141.519V170.486C28.6144 169.208 27.3158 167.899 26.0659 166.56V141.519H29.9619Z" fill="#6AACEC"/>
<path d="M137.116 141.519V184.804C135.835 185.555 134.537 186.274 133.22 186.961V141.521L137.116 141.519Z" fill="#4788D6"/>
<path d="M171.717 152.468C166.984 159.137 161.686 165.236 155.904 170.675L158.985 117.739H169.695L171.717 152.468Z" fill="#8FC9EF"/>
<path d="M159.39 114.651C158.09 98.5526 162.406 81.703 167.652 73.8992C170.846 85.1578 159.802 93.0209 162.723 117.399" fill="url(#paint12_linear_57_7401)"/>
<path d="M159.468 112.059C161.315 96.0323 157.575 79 152.601 70.9597C149.027 82.0629 159.794 90.4264 156.047 114.651" fill="url(#paint13_linear_57_7401)"/>
<path d="M160.5 116.545C160.876 100.383 166.262 88.056 172.276 81.0409C174.281 92.6641 162.504 98.9258 162.88 123.535" fill="url(#paint14_linear_57_7401)"/>
<path d="M160.5 122.744C160.124 106.583 154.737 94.256 148.724 87.2401C146.719 98.8633 158.495 105.125 158.12 129.734" fill="url(#paint15_linear_57_7401)"/>
<path d="M167.459 158.12C163.87 162.619 160.009 166.814 155.906 170.673C154.137 172.339 152.317 173.94 150.446 175.477L154.102 112.693H164.813L167.459 158.12Z" fill="#F0F8FF"/>
<path d="M38.1196 41.1359H3.59977C1.61167 41.1359 0 43.0092 0 45.32V76.798C0 79.1088 1.61167 80.9821 3.59977 80.9821H38.1196C40.1077 80.9821 41.7194 79.1088 41.7194 76.798V45.32C41.7194 43.0092 40.1077 41.1359 38.1196 41.1359Z" fill="#F6D100"/>
<g clip-path="url(#clip0_57_7401)">
<path d="M27.2911 51.1965L11.0105 45.412L8.97144 47.6763L21.5977 57.6529L21.1325 58.4179L26.3642 52.8174L26.8051 52.9741L27.0481 52.0853L27.2911 51.1965Z" fill="#FFC34D"/>
<path d="M24.0149 60.703L32.7323 75.4401L34.7615 73.187L29.6029 54.2289L28.8229 54.5047V54.5046V54.5047L28.043 54.7804L28.1701 55.2473L23.183 60.9208L22.5059 61.4414L22.8983 62.1047L24.0149 60.703Z" fill="#FF884D"/>
<path d="M12.4482 70.7621L15.3118 76.8047L16.833 75.2998L17.4936 66.5976L12.4482 70.7621Z" fill="#FF884D"/>
<path d="M11.6139 69.9989L6.95239 66.8996L8.23103 65.1397L15.6888 64.7746L11.6139 69.9989Z" fill="#FFC34D"/>
<path d="M32.6417 47.0704L30.1826 50.5799L24.6677 58.3155L10.472 72.5814C10.4704 72.5721 10.4715 72.5646 10.4726 72.559L10.6446 71.4096C10.7382 70.7872 10.9696 70.197 11.3142 69.7029L15.0733 64.3092C19.0442 58.9402 22.6846 54.7417 27.2445 50.2708L28.1073 49.4248C28.1073 49.4248 32.6107 47.0338 32.6417 47.0704Z" fill="#E6F7FF"/>
<path d="M31.1126 52.9426L30.3483 53.9033C26.3077 58.9824 22.5307 63.0202 17.7181 67.4042L12.7075 71.7026C12.3553 72.0048 11.96 72.2202 11.5332 72.3437L10.5402 72.6304C10.5348 72.6323 10.5261 72.6342 10.5163 72.6317C10.5016 72.6155 10.4863 72.5988 10.4722 72.582V72.5814L25.1798 56.158L30.179 50.5755L32.4026 48.5968C32.4336 48.6328 31.1126 52.9426 31.1126 52.9426Z" fill="#B3D9FF"/>
<path d="M33.9516 46.3628L30.1789 50.5756L30.1745 50.5706C29.7346 50.053 29.163 49.6819 28.5184 49.5248L28.1074 49.4249L30.0602 47.5103C30.7614 46.8227 31.621 46.374 32.547 46.2139L33.2607 46.0897C33.4752 46.0525 33.6859 46.1139 33.8557 46.2567C33.8737 46.2753 33.8911 46.2945 33.9086 46.3138C33.9233 46.3299 33.9374 46.346 33.9516 46.3628Z" fill="#99AAFF"/>
<path d="M34.1727 47.1565L34.0453 47.967C33.8798 49.0177 33.4644 49.9865 32.8433 50.7673L31.1126 52.9425L31.0358 52.4715C30.9166 51.7416 30.6123 51.0869 30.179 50.5755L33.9516 46.3627C33.9827 46.3987 34.0126 46.436 34.042 46.4744C34.1629 46.6718 34.2113 46.9132 34.1727 47.1565Z" fill="#8080FF"/>
</g>
<path d="M78.2112 24.9892H47.8627C46.9026 24.9892 46.1243 25.8939 46.1243 27.0098V53.22C46.1243 54.3359 46.9026 55.2406 47.8627 55.2406H78.2112C79.1713 55.2406 79.9496 54.3359 79.9496 53.22V27.0098C79.9496 25.8939 79.1713 24.9892 78.2112 24.9892Z" fill="url(#paint16_linear_57_7401)"/>
<g clip-path="url(#clip1_57_7401)">
<path fill-rule="evenodd" clip-rule="evenodd" d="M68.8057 38.5666H74.8064V40.943C74.8064 41.5306 74.3858 42.0105 73.8708 42.0105H71.7124L70.4248 42.7519L68.8057 42.0105V38.5666H68.8057Z" fill="#FFE07D"/>
<path fill-rule="evenodd" clip-rule="evenodd" d="M69.7413 35.1181H73.8708C74.3858 35.1181 74.8064 35.598 74.8064 36.1855V37.9513H68.8057V36.1855C68.8057 35.598 69.2263 35.1181 69.7413 35.1181Z" fill="#FFE07D"/>
<path fill-rule="evenodd" clip-rule="evenodd" d="M68.8057 37.4192H74.8064V39.0973H68.8057V37.4192Z" fill="#FF8086"/>
<path fill-rule="evenodd" clip-rule="evenodd" d="M73.5538 37.4192H74.3223H74.8063V36.1856C74.8063 35.7841 74.6095 35.4334 74.3223 35.2519C74.1875 35.1673 74.0338 35.118 73.8706 35.118H72.6182C73.1332 35.118 73.5538 35.5979 73.5538 36.1855V37.4192H73.5538Z" fill="#FFC269"/>
<path fill-rule="evenodd" clip-rule="evenodd" d="M73.554 39.0973H74.3224H74.8064V38.5666V37.9514V37.4192H74.3224H73.554V37.9514V38.5666V39.0973Z" fill="#F76672"/>
<path fill-rule="evenodd" clip-rule="evenodd" d="M73.5538 39.0973V40.9431C73.5538 41.5307 73.1332 42.0106 72.6182 42.0106H73.8706C74.0337 42.0106 74.1874 41.9629 74.3223 41.8783C74.6094 41.6952 74.8063 41.3446 74.8063 40.9431V39.0973H74.3223H73.5538Z" fill="#FFC269"/>
<path fill-rule="evenodd" clip-rule="evenodd" d="M68.8056 42.0105H71.7122V43.5348C71.7122 43.9009 71.4494 44.1993 71.1298 44.1993H61.666C61.666 43.2411 61.666 42.7534 62.3091 42.7534L63.5899 42.7519C64.3961 42.7504 64.9245 42.515 65.2198 42.0105H68.8056V42.0105Z" fill="#6F6571"/>
<path fill-rule="evenodd" clip-rule="evenodd" d="M62.8075 44.1993H71.1298C71.6179 45.1684 72.0102 46.3328 71.6718 48.56C71.1055 46.3635 65.3542 47.2403 64.7637 49.7751H58.4178C58.1779 49.1553 57.9514 48.5431 57.7532 47.9248H59.5422C63.1607 46.3681 61.9972 47.0618 62.8075 44.1993Z" fill="#FFE07D"/>
<path fill-rule="evenodd" clip-rule="evenodd" d="M62.2938 38.2451C62.4178 38.9896 62.5863 39.7233 62.7751 40.3478L64.6044 41.1649L66.6443 40.3478C66.5728 35.9471 65.1303 33.8368 63.9034 33.1538C63.4613 32.77 63.0083 32.6254 63.0083 32.6254C63.0083 32.6254 62.4124 33.7122 62.3814 33.7122C62.1522 34.3336 62.0659 35.1442 62.0807 36.0194L62.2938 38.2451Z" fill="#ECEAEC"/>
<path fill-rule="evenodd" clip-rule="evenodd" d="M66.6446 40.3478H62.7753C61.8841 40.4585 60.7881 41.2322 60.7881 43.6287V46.1405L61.6662 46.7367L62.8076 46.1405V44.1993C62.8076 43.241 62.8076 42.7534 63.4507 42.7534L64.7315 42.7519C65.5377 42.7504 66.0662 42.515 66.3614 42.0105C66.5893 41.6214 66.6769 41.0722 66.6446 40.3478Z" fill="#FF8086"/>
<path fill-rule="evenodd" clip-rule="evenodd" d="M66.6444 40.3478C66.573 35.9471 65.1304 33.8368 63.9036 33.1538C63.7216 33.2999 63.5193 33.4199 63.2969 33.5091C64.3835 34.4459 65.4728 36.5393 65.5348 40.3478H66.6444Z" fill="#DAD8DB"/>
<path fill-rule="evenodd" clip-rule="evenodd" d="M66.6445 40.3478H65.5349C65.5673 41.0722 65.4797 41.6214 65.2518 42.0105C65.0658 42.329 64.7854 42.5981 64.4011 42.7519H64.7314C65.5377 42.7504 66.0661 42.5151 66.3614 42.0105C66.5892 41.6214 66.6768 41.0722 66.6445 40.3478Z" fill="#F76672"/>
<path fill-rule="evenodd" clip-rule="evenodd" d="M64.7637 49.7751C64.7637 47.5002 66.3451 45.6883 68.2959 45.6883C69.8827 45.6883 71.2255 46.888 71.6717 48.56C71.7634 48.903 71.8173 49.2676 71.8268 49.6459C71.8308 49.7936 71.7418 49.7751 71.6205 49.7751C69.3353 49.7751 67.0488 49.7736 64.7637 49.7751Z" fill="#FF8086"/>
<path fill-rule="evenodd" clip-rule="evenodd" d="M65.6521 49.7751H71.0286C70.9518 51.4271 69.7776 52.7407 68.3404 52.7407C66.9032 52.7407 65.7289 51.4271 65.6521 49.7751Z" fill="#6F6571"/>
<path fill-rule="evenodd" clip-rule="evenodd" d="M51.9992 49.1214L56.6248 50.335C56.3309 51.7917 55.0569 52.7023 53.7802 52.367C52.5021 52.0316 51.7053 50.5781 51.9992 49.1214Z" fill="#6F6571"/>
<path fill-rule="evenodd" clip-rule="evenodd" d="M51.6527 47.6432C52.3066 46.5588 53.4417 45.9297 54.6282 46.0651C56.7205 46.5696 57.4014 47.9955 57.5375 49.7736C57.5348 50.0151 57.5119 50.2581 57.4661 50.5012C57.4526 50.5689 57.4135 50.5412 57.3487 50.5242L56.6248 50.335L51.9992 49.1214L51.6527 49.0307L51.1687 48.903C51.2617 48.4385 51.4289 48.014 51.6527 47.6432Z" fill="#ECEAEC"/>
<path fill-rule="evenodd" clip-rule="evenodd" d="M54.624 46.0589L56.4926 38.6881L57.3339 38.259L58.2749 38.6881C57.0386 42.5951 57.3837 45.3222 58.2183 47.9248C58.4178 48.5431 58.6443 49.1553 58.883 49.7751H57.5388L54.624 46.0589Z" fill="#FF8086"/>
<path fill-rule="evenodd" clip-rule="evenodd" d="M60.4105 30.4236L62.6026 29.8914C62.8251 29.9145 63.4614 30.5236 63.4614 30.9051L62.995 33.6091C62.8008 33.6753 62.5945 33.7122 62.3815 33.7122C61.214 33.7122 60.2676 32.6309 60.2676 31.2988C60.2676 30.9897 60.3174 30.6943 60.4105 30.4236Z" fill="#FFECE4"/>
<path fill-rule="evenodd" clip-rule="evenodd" d="M59.7026 30.4236C59.7026 28.704 60.8971 27.312 62.372 27.312C63.8469 27.312 65.0414 28.704 65.0414 30.4236C65.0414 31.5588 64.6369 32.5678 63.9035 33.1539C63.642 33.3646 63.3373 33.52 62.9949 33.6092V30.905C62.9949 30.5236 62.825 30.4467 62.6025 30.4236H60.4104H59.7026V30.4236Z" fill="#FF8086"/>
<path fill-rule="evenodd" clip-rule="evenodd" d="M60.9753 27.7718C61.3812 27.4796 61.8598 27.312 62.372 27.312C63.8469 27.312 65.0414 28.704 65.0414 30.4236C65.0414 31.5588 64.637 32.5678 63.9036 33.1539C63.7175 33.3031 63.5112 33.4246 63.2847 33.5138C63.8267 32.8878 64.1206 31.9895 64.1206 30.9989C64.1206 29.2023 62.8708 27.7457 61.3299 27.7457C61.2099 27.7457 61.0913 27.7534 60.9753 27.7718Z" fill="#F76672"/>
<path fill-rule="evenodd" clip-rule="evenodd" d="M60.7881 46.1405H62.8077V47.591C62.8077 47.9017 62.6594 47.9248 62.441 47.9248H59.5424C59.4844 46.4696 60.2569 46.1405 60.7881 46.1405Z" fill="#6F6571"/>
<path fill-rule="evenodd" clip-rule="evenodd" d="M58.2183 47.9248C57.3838 45.3222 57.0386 42.5951 58.2749 38.6881H57.5819C57.5792 38.6881 57.5765 38.6881 57.5738 38.6881H57.3244C56.0882 42.5951 56.4319 45.3222 57.2678 47.9248C57.466 48.5431 57.6925 49.1553 57.9325 49.7752H58.4178H58.883C58.6443 49.1553 58.4178 48.5431 58.2183 47.9248Z" fill="#F76672"/>
<path fill-rule="evenodd" clip-rule="evenodd" d="M57.5376 49.7736L54.6282 46.0651C54.3276 46.0313 54.0296 46.0451 53.7424 46.1051L56.5386 49.669C56.5359 49.8766 56.5183 50.0874 56.4833 50.2981L56.6248 50.335L57.3488 50.5242C57.4136 50.5411 57.4527 50.5688 57.4661 50.5011C57.5119 50.2581 57.5348 50.0151 57.5376 49.7736Z" fill="#DAD8DB"/>
<path fill-rule="evenodd" clip-rule="evenodd" d="M71.1299 44.1993H62.8076V45.0345H69.6456C70.2024 45.0345 70.4666 45.3083 70.6837 45.8636C70.8711 46.3451 70.8752 46.502 70.9601 47.0834C71.2796 47.5064 71.525 48.0079 71.6719 48.56C72.0103 46.3327 71.6179 45.1684 71.1299 44.1993Z" fill="#FFC269"/>
<path fill-rule="evenodd" clip-rule="evenodd" d="M70.9599 47.0833C70.3128 46.2266 69.3596 45.6883 68.2959 45.6883C68.029 45.6883 67.7701 45.7221 67.5208 45.7852C69.113 46.1958 70.2266 47.7986 70.2751 49.6459C70.2778 49.7475 70.2373 49.7705 70.1726 49.7751H71.0287H71.6206C71.7419 49.7751 71.8309 49.7936 71.8269 49.6459C71.8174 49.2676 71.7635 48.903 71.6718 48.56C71.6692 48.5492 71.6664 48.54 71.6638 48.5308C71.6638 48.5308 71.6638 48.5308 71.6638 48.5293C71.5154 47.9893 71.2741 47.4987 70.9599 47.0833Z" fill="#F76672"/>
<path fill-rule="evenodd" clip-rule="evenodd" d="M56.4833 50.2981L51.9992 49.1214C51.9493 49.3629 51.9318 49.6059 51.9399 49.8428L55.499 50.7765L55.6393 50.8134C55.5071 51.4748 55.1714 52.0239 54.7252 52.3946C55.6352 52.2116 56.405 51.4271 56.6248 50.335L56.4833 50.2981Z" fill="#5D5360"/>
<path fill-rule="evenodd" clip-rule="evenodd" d="M70.1726 49.7751H65.6521C65.6669 50.0981 65.7249 50.4089 65.8179 50.6995H68.9673H69.8234C69.7897 51.4225 69.547 52.0793 69.1641 52.5915C70.2035 52.2023 70.9679 51.0964 71.0286 49.7751H70.1726V49.7751Z" fill="#5D5360"/>
<path fill-rule="evenodd" clip-rule="evenodd" d="M71.7122 43.5348V42.0106H69.8854V43.5348C69.8854 43.9009 69.6225 44.1993 69.303 44.1993H71.1298C71.4493 44.1994 71.7122 43.9009 71.7122 43.5348Z" fill="#5D5360"/>
<path fill-rule="evenodd" clip-rule="evenodd" d="M60.2783 31.0404H62.0795C62.3019 31.0635 62.4718 31.1419 62.4718 31.5234V33.7091C62.6525 33.6999 62.8277 33.6661 62.9949 33.6091V30.905C62.9949 30.5236 62.825 30.4467 62.6026 30.4236H60.4105C60.3444 30.6174 60.2985 30.8251 60.2783 31.0404Z" fill="#FFDDCE"/>
<path fill-rule="evenodd" clip-rule="evenodd" d="M56.1031 36.367L58.6256 37.3176C58.7496 37.4437 58.6094 38.7296 58.5258 38.6881H56.4928H55.5935V36.5716C55.5935 36.1548 55.7836 36.2471 56.1031 36.367Z" fill="#FFE07D"/>
<path fill-rule="evenodd" clip-rule="evenodd" d="M59.8012 38.6881H59.5895H58.5258C57.8409 38.6881 57.8207 37.393 58.6255 37.3176L59.8012 37.2099L60.1166 37.9713L59.8012 38.6881Z" fill="#FFECE4"/>
<path fill-rule="evenodd" clip-rule="evenodd" d="M62.0808 36.0194L62.5028 35.6057C63.5597 34.5674 64.8958 36.3194 63.4829 37.3653L62.2938 38.2451L61.6952 38.6881H59.801V37.2099L60.978 37.1007L62.0808 36.0194Z" fill="#FF8086"/>
<path fill-rule="evenodd" clip-rule="evenodd" d="M59.801 38.6881V37.9714H59.5489H59.4127H59.1997H58.136C58.0956 37.9714 58.0578 37.9683 58.0214 37.959C57.9823 38.3159 58.159 38.6881 58.5257 38.6881H59.5894H59.801Z" fill="#FFDDCE"/>
<path fill-rule="evenodd" clip-rule="evenodd" d="M63.4829 37.3653C64.3377 36.7316 64.1866 35.841 63.7 35.4657C63.7391 35.8502 63.5787 36.2917 63.0933 36.6501L62.1671 37.3346L61.9056 37.5299L61.307 37.9714H59.801V38.6882H61.6952L62.2938 38.2452L63.4829 37.3653Z" fill="#F76672"/>
<path fill-rule="evenodd" clip-rule="evenodd" d="M58.6255 37.3176L57.6103 36.9362C57.2706 37.3515 57.1061 38.1605 57.3245 38.6881H58.275H58.5257C58.159 38.6881 57.9824 38.3159 58.0215 37.959C58.0565 37.6499 58.2521 37.353 58.6255 37.3176Z" fill="#FFC269"/>
</g>
<path d="M54.0625 30.0493H50.4292C50.3087 30.0493 50.1933 29.9937 50.1081 29.8947C50.0229 29.7957 49.9751 29.6615 49.9751 29.5215C49.9751 29.3815 50.0229 29.2473 50.1081 29.1483C50.1933 29.0493 50.3087 28.9937 50.4292 28.9937H54.0625C54.183 28.9937 54.2985 29.0493 54.3836 29.1483C54.4688 29.2473 54.5166 29.3815 54.5166 29.5215C54.5166 29.6615 54.4688 29.7957 54.3836 29.8947C54.2985 29.9937 54.183 30.0493 54.0625 30.0493Z" fill="white"/>
<path opacity="0.44" d="M55.7848 32.6344H50.4292C50.3087 32.6344 50.1933 32.5788 50.1081 32.4798C50.0229 32.3808 49.9751 32.2466 49.9751 32.1066C49.9751 31.9665 50.0229 31.8322 50.1081 31.7331C50.1932 31.634 50.3087 31.5782 50.4292 31.578H55.7848C55.9053 31.5782 56.0208 31.634 56.1059 31.7331C56.1911 31.8322 56.2389 31.9665 56.2389 32.1066C56.2389 32.2466 56.1911 32.3808 56.1059 32.4798C56.0207 32.5788 55.9053 32.6344 55.7848 32.6344Z" fill="white"/>
<path d="M39.358 34.2725C45.6888 34.2725 50.8209 28.3072 50.8209 20.9488C50.8209 13.5903 45.6888 7.62506 39.358 7.62506C33.0272 7.62506 27.895 13.5903 27.895 20.9488C27.895 28.3072 33.0272 34.2725 39.358 34.2725Z" fill="url(#paint17_linear_57_7401)"/>
<path d="M39.358 30.0134C43.6651 30.0134 47.1567 25.955 47.1567 20.9488C47.1567 15.9425 43.6651 11.8841 39.358 11.8841C35.0509 11.8841 31.5593 15.9425 31.5593 20.9488C31.5593 25.955 35.0509 30.0134 39.358 30.0134Z" fill="url(#paint18_linear_57_7401)"/>
<path d="M38.0289 19.1821H36.3865V18.974L37.0487 17.8416C37.0696 17.8059 37.0978 17.7767 37.1309 17.7565C37.164 17.7363 37.201 17.7258 37.2386 17.7258H38.0289V19.1821Z" fill="#FA5D3F"/>
<path d="M38.029 22.5108V21.2625H34.6528C34.5318 21.2625 34.4157 21.3173 34.3302 21.4149C34.2446 21.5124 34.1965 21.6447 34.1965 21.7827V24.3312C34.1965 24.4002 34.2206 24.4663 34.2633 24.5151C34.3061 24.5639 34.3642 24.5913 34.4247 24.5913H44.5532C44.6137 24.5913 44.6717 24.5639 44.7145 24.5151C44.7573 24.4663 44.7813 24.4002 44.7813 24.3312V22.5108H38.029Z" fill="#FA5D3F"/>
<path d="M38.029 21.4706H34.5615V21.2626L35.8165 19.2954C35.88 19.1958 35.9633 19.1149 36.0594 19.059C36.1556 19.0032 36.2621 18.9741 36.37 18.9741H38.029V21.4706Z" fill="#FEECE8"/>
<path d="M38.0746 16.8936H44.5532C44.6137 16.8936 44.6717 16.921 44.7145 16.9698C44.7573 17.0185 44.7813 17.0847 44.7813 17.1536V22.7189H37.8464V17.1536C37.8464 17.0847 37.8705 17.0185 37.9133 16.9698C37.956 16.921 38.0141 16.8936 38.0746 16.8936Z" fill="#FAC850"/>
<path d="M36.0215 26.2556C36.6262 26.2556 37.1165 25.6968 37.1165 25.0074C37.1165 24.318 36.6262 23.7591 36.0215 23.7591C35.4168 23.7591 34.9265 24.318 34.9265 25.0074C34.9265 25.6968 35.4168 26.2556 36.0215 26.2556Z" fill="#4D4D4D"/>
<path d="M42.9563 26.2556C43.561 26.2556 44.0513 25.6968 44.0513 25.0074C44.0513 24.318 43.561 23.7591 42.9563 23.7591C42.3516 23.7591 41.8613 24.318 41.8613 25.0074C41.8613 25.6968 42.3516 26.2556 42.9563 26.2556Z" fill="#4D4D4D"/>
<path d="M36.5691 21.8867H37.2991V22.3028H36.5691V21.8867Z" fill="#FFFEFD"/>
<path d="M34.6528 22.9269H34.1965V21.7827C34.1965 21.6447 34.2446 21.5124 34.3302 21.4149C34.4157 21.3173 34.5318 21.2625 34.6528 21.2625H35.109V22.4068C35.109 22.5447 35.0609 22.677 34.9754 22.7746C34.8898 22.8721 34.7738 22.9269 34.6528 22.9269Z" fill="#FAC850"/>
<path d="M40.9198 21.5526C40.3392 21.0705 39.943 20.3528 39.8127 19.5474L39.676 18.558L41.3162 17.7242L42.9564 18.558L42.8183 19.5557C42.687 20.3679 42.2851 21.0907 41.6967 21.5726L41.3177 21.8867L40.9198 21.5526Z" fill="#9FDC6E"/>
<path d="M41.1316 20.4304C41.1076 20.4304 41.0839 20.425 41.0617 20.4146C41.0396 20.4041 41.0195 20.3888 41.0026 20.3694L40.4551 19.7453L40.7132 19.4511L41.1316 19.9281L42.0975 18.8269L42.3556 19.1211L41.2606 20.3694C41.2437 20.3888 41.2236 20.4041 41.2015 20.4146C41.1793 20.425 41.1556 20.4304 41.1316 20.4304Z" fill="#FBFEF9"/>
<path d="M38.394 17.5177H38.759V17.9338H38.394V17.5177Z" fill="#FFFAF6"/>
<path d="M38.394 21.6786H38.759V22.0947H38.394V21.6786Z" fill="#FFFAF6"/>
<path d="M43.8689 17.5177H44.2339V17.9338H43.8689V17.5177Z" fill="#FFFAF6"/>
<path d="M43.8689 21.6786H44.2339V22.0947H43.8689V21.6786Z" fill="#FFFAF6"/>
<path d="M36.0215 25.4235C36.2231 25.4235 36.3865 25.2372 36.3865 25.0074C36.3865 24.7776 36.2231 24.5913 36.0215 24.5913C35.8199 24.5913 35.6565 24.7776 35.6565 25.0074C35.6565 25.2372 35.8199 25.4235 36.0215 25.4235Z" fill="#FEFEFE"/>
<path d="M42.9563 25.4235C43.1579 25.4235 43.3213 25.2372 43.3213 25.0074C43.3213 24.7776 43.1579 24.5913 42.9563 24.5913C42.7547 24.5913 42.5913 24.7776 42.5913 25.0074C42.5913 25.2372 42.7547 25.4235 42.9563 25.4235Z" fill="#FEFEFE"/>
<path d="M34.0139 17.5177H35.4739V17.9338H34.0139V17.5177Z" fill="white"/>
<path d="M35.8389 17.5177H36.2039V17.9338H35.8389V17.5177Z" fill="white"/>
<path d="M35.6565 15.4373H38.5764V15.8533H35.6565V15.4373Z" fill="white"/>
<path d="M38.9414 15.4373H39.3064V15.8533H38.9414V15.4373Z" fill="white"/>
<path d="M40.5837 15.8534H43.5037V16.2695H40.5837V15.8534Z" fill="white"/>
<path d="M43.8687 15.8534H44.2336V16.2695H43.8687V15.8534Z" fill="white"/>
<path d="M37.4814 25.6315H40.7664V26.0476H37.4814V25.6315Z" fill="white"/>
<path d="M41.1313 25.6315H41.4963V26.0476H41.1313V25.6315Z" fill="white"/>
<path d="M125.975 1.70384V16.3298C125.975 16.522 125.946 16.7124 125.891 16.89C125.836 17.0676 125.755 17.229 125.653 17.3649C125.551 17.5008 125.43 17.6087 125.297 17.6822C125.163 17.7558 125.021 17.7937 124.876 17.7937H108.794L105.699 21.9172C105.629 22.0113 105.539 22.0754 105.442 22.1015C105.344 22.1276 105.243 22.1144 105.151 22.0636C105.058 22.0128 104.98 21.9267 104.924 21.8162C104.869 21.7057 104.84 21.5758 104.84 21.443V1.70384C104.84 1.5116 104.868 1.32125 104.923 1.14364C104.979 0.966042 105.06 0.80468 105.162 0.668749C105.264 0.532818 105.385 0.424979 105.518 0.351413C105.651 0.277848 105.794 0.23999 105.938 0.23999H124.876C125.168 0.23999 125.447 0.394224 125.653 0.668749C125.859 0.943274 125.975 1.3156 125.975 1.70384Z" fill="#BDE1FF"/>
<path d="M118.369 6.7619H112.322C111.944 6.7619 111.638 7.11771 111.638 7.55662V13.3943C111.638 13.8332 111.944 14.189 112.322 14.189H118.369C118.746 14.189 119.052 13.8332 119.052 13.3943V7.55662C119.052 7.11771 118.746 6.7619 118.369 6.7619Z" fill="url(#paint19_linear_57_7401)"/>
<path d="M112.873 6.62201H110.402L112.383 2.77655H113.864L112.873 6.62201Z" fill="url(#paint20_linear_57_7401)"/>
<path d="M115.345 6.62222H112.873L113.864 2.77676H115.345V6.62222Z" fill="url(#paint21_linear_57_7401)"/>
<path d="M117.815 6.6223H115.344V2.77618H116.824L117.815 6.6223Z" fill="url(#paint22_linear_57_7401)"/>
<path d="M120.288 6.6223H117.815L116.826 2.77618H118.307L120.288 6.6223Z" fill="url(#paint23_linear_57_7401)"/>
<path d="M110.402 6.62228H112.873V7.85221C112.873 8.23117 112.744 8.59461 112.513 8.86257C112.283 9.13053 111.97 9.28107 111.644 9.28107H111.631C111.469 9.28107 111.309 9.24411 111.16 9.1723C111.011 9.10049 110.876 8.99523 110.761 8.86255C110.647 8.72986 110.557 8.57234 110.495 8.39899C110.433 8.22563 110.402 8.03984 110.402 7.85221V6.62228Z" fill="url(#paint24_linear_57_7401)"/>
<path d="M112.873 6.62228H115.345V7.85221C115.345 8.03987 115.313 8.22569 115.251 8.39907C115.19 8.57244 115.099 8.72997 114.985 8.86266C114.871 8.99535 114.735 9.1006 114.586 9.17239C114.437 9.24418 114.277 9.28111 114.116 9.28107H114.102C113.941 9.28107 113.781 9.24411 113.632 9.1723C113.483 9.10049 113.347 8.99523 113.233 8.86255C113.119 8.72986 113.029 8.57234 112.967 8.39899C112.905 8.22563 112.873 8.03984 112.873 7.85221V6.62228Z" fill="url(#paint25_linear_57_7401)"/>
<path d="M115.345 6.62228H117.817V7.85221C117.817 8.03987 117.785 8.22569 117.723 8.39907C117.661 8.57244 117.571 8.72997 117.457 8.86266C117.342 8.99535 117.207 9.1006 117.058 9.17239C116.909 9.24418 116.749 9.28111 116.587 9.28107H116.574C116.413 9.28107 116.253 9.24411 116.104 9.1723C115.954 9.10049 115.819 8.99523 115.705 8.86255C115.591 8.72986 115.5 8.57234 115.438 8.39899C115.377 8.22563 115.345 8.03984 115.345 7.85221V6.62228Z" fill="url(#paint26_linear_57_7401)"/>
<path d="M117.816 6.62228H120.288V7.85221C120.288 8.03987 120.256 8.22569 120.194 8.39907C120.132 8.57244 120.042 8.72997 119.928 8.86266C119.814 8.99535 119.678 9.1006 119.529 9.17239C119.38 9.24418 119.22 9.28111 119.058 9.28107H119.045C118.884 9.28107 118.724 9.24411 118.575 9.1723C118.426 9.10049 118.29 8.99523 118.176 8.86255C118.062 8.72986 117.971 8.57234 117.91 8.39899C117.848 8.22563 117.816 8.03984 117.816 7.85221V6.62228Z" fill="url(#paint27_linear_57_7401)"/>
<path d="M116.419 10.5946V14.189H114.27V10.5946C114.27 10.4121 114.332 10.237 114.443 10.1079C114.554 9.97888 114.705 9.90637 114.862 9.90637H115.829C115.986 9.90715 116.136 9.98 116.246 10.109C116.357 10.238 116.419 10.4126 116.419 10.5946Z" fill="#202070"/>
<path d="M151.292 16.9626H139.288C136.683 16.9626 134.572 19.417 134.572 22.4447V36.3974C134.572 39.425 136.683 41.8794 139.288 41.8794H151.292C153.897 41.8794 156.009 39.425 156.009 36.3974V22.4447C156.009 19.417 153.897 16.9626 151.292 16.9626Z" fill="url(#paint28_linear_57_7401)"/>
<g clip-path="url(#clip2_57_7401)">
<path d="M142.986 30.547H139.389C139.182 30.547 139.014 30.7388 139.014 30.9746V31.9175C139.014 32.0444 139.104 32.1471 139.215 32.1471C139.326 32.1471 139.417 32.0443 139.417 31.9175V31.0063H140.271V31.9175C140.271 32.0444 140.361 32.1471 140.472 32.1471C140.583 32.1471 140.673 32.0443 140.673 31.9175V31.0063H141.528V31.9175C141.528 32.0444 141.618 32.1471 141.729 32.1471C141.84 32.1471 141.93 32.0443 141.93 31.9175V31.0063H142.986C143.097 31.0063 143.187 30.9035 143.187 30.7767C143.187 30.6498 143.097 30.547 142.986 30.547Z" fill="#8FACE0"/>
<path d="M143.554 29.2378C143.443 29.2378 143.353 29.135 143.353 29.0082V27.774L142.966 27.45C142.876 27.3749 142.857 27.2312 142.923 27.129C142.989 27.0268 143.115 27.0047 143.204 27.0799L143.602 27.413C143.698 27.4935 143.756 27.6227 143.756 27.7587V29.0082C143.756 29.135 143.665 29.2378 143.554 29.2378Z" fill="#6A61B2"/>
<path d="M144.592 27.3936L144.992 29.0082H146.997L147.397 27.3936H144.592Z" fill="#8A94DB"/>
<path d="M146.725 27.3936L146.325 29.0082H146.997L147.397 27.3936H146.725Z" fill="#717ED4"/>
<path d="M145.995 27.3979C145.883 27.3979 145.793 27.2951 145.793 27.1683V23.4949C145.793 23.368 145.883 23.2653 145.995 23.2653C146.106 23.2653 146.196 23.3681 146.196 23.4949V27.1683C146.196 27.2951 146.106 27.3979 145.995 27.3979Z" fill="#8FACE0"/>
<path d="M147.515 26.4895H144.475C144.421 26.4895 144.383 26.5477 144.397 26.6063L144.592 27.3936H147.397L147.592 26.6063C147.607 26.5477 147.568 26.4895 147.515 26.4895Z" fill="#D6E0F4"/>
<path d="M147.515 26.4895H146.842C146.896 26.4895 146.934 26.5477 146.92 26.6063L146.725 27.3936H147.397L147.592 26.6063C147.607 26.5477 147.568 26.4895 147.515 26.4895Z" fill="#B8C9EA"/>
<path d="M145.797 29.0082H146.192C146.195 28.9941 146.196 28.9795 146.196 28.9646V27.3936H145.793V28.9646C145.793 28.9795 145.795 28.9941 145.797 29.0082Z" fill="#D6E0F4"/>
<path d="M142.986 32.2323V29.1612C142.986 29.0767 143.046 29.0081 143.12 29.0081H147.654C147.809 29.0081 147.951 29.1072 148.021 29.2646L149.347 32.2323H142.986Z" fill="#D6E0F4"/>
<path d="M148.021 29.2646C147.951 29.1072 147.809 29.0081 147.654 29.0081H146.923C147.078 29.0081 147.22 29.1072 147.29 29.2646L148.615 32.2323H149.347L148.021 29.2646Z" fill="#B8C9EA"/>
<path d="M146.834 30.0829L145.352 31.2284C145.326 31.2491 145.294 31.2601 145.262 31.2601H142.986V32.2323H149.347L148.375 30.0565H146.909C146.882 30.0565 146.856 30.0657 146.834 30.0829Z" fill="#B8C9EA"/>
<path d="M151.369 32.2323V32.9981C151.369 33.2311 151.294 33.4557 151.159 33.6304C150.928 33.9297 150.562 34.4487 150.367 34.9669C150.235 35.3184 149.932 35.5468 149.597 35.5468H143.096C142.964 35.5468 142.833 35.5148 142.713 35.4528C142.127 35.1522 140.268 34.2189 139.251 33.9579C139 33.8937 138.821 33.6414 138.821 33.3485V32.5804L151.369 32.2323Z" fill="#E27F86"/>
<path d="M151.268 33.4522C151.327 33.3346 151.369 33.1602 151.369 33.0102V32.2323L145.62 32.3956L145.433 32.5403C145.406 32.561 145.375 32.5804 145.342 32.5804H138.821V33.3485C138.821 33.4345 138.837 33.5168 138.865 33.5921H150.334C150.386 33.5921 150.415 33.6606 150.382 33.707C150.207 33.9573 149.796 34.5616 149.644 34.9669C149.512 35.3185 149.21 35.5469 148.874 35.5469H149.597C149.935 35.5469 150.236 35.3135 150.37 34.9598C150.565 34.444 150.929 33.9283 151.159 33.6304C151.169 33.6178 151.178 33.6052 151.187 33.5919C151.206 33.5644 151.23 33.5316 151.265 33.4589L151.268 33.4522Z" fill="#DF646E"/>
<path d="M146.914 30.7403L145.433 31.8859C145.406 31.9065 145.375 31.9176 145.342 31.9176H138.809C138.632 31.9176 138.489 32.0811 138.489 32.2829V32.5723C138.489 32.7741 138.632 32.9377 138.809 32.9377H151.179C151.542 32.9377 151.837 32.6017 151.837 32.1873V31.4643C151.837 31.0499 151.542 30.714 151.179 30.714H146.99C146.963 30.7139 146.937 30.7231 146.914 30.7403Z" fill="#6A61B2"/>
<path d="M151.179 30.7139H150.496C150.859 30.7139 151.154 31.0499 151.154 31.4643V32.1873C151.154 32.6017 150.859 32.9376 150.496 32.9376H151.179C151.542 32.9376 151.837 32.6017 151.837 32.1873V31.4643C151.837 31.0499 151.542 30.7139 151.179 30.7139Z" fill="#514898"/>
<path d="M144.961 30.5847C144.987 30.2828 144.794 30.0137 144.529 29.9837C144.264 29.9536 144.028 30.174 144.002 30.4759C143.976 30.7778 144.169 31.0469 144.434 31.0769C144.699 31.107 144.935 30.8866 144.961 30.5847Z" fill="#8A94DB"/>
<path d="M148.427 31.3071C147.637 31.3071 146.997 32.0372 146.997 32.9377C146.997 33.8382 147.637 34.5682 148.427 34.5682C149.217 34.5682 149.858 33.8382 149.858 32.9377C149.858 32.0372 149.217 31.3071 148.427 31.3071ZM148.427 33.7529C148.032 33.7529 147.712 33.3879 147.712 32.9377C147.712 32.4874 148.032 32.1224 148.427 32.1224C148.822 32.1224 149.143 32.4874 149.143 32.9377C149.143 33.3879 148.822 33.7529 148.427 33.7529Z" fill="#D6E0F4"/>
</g>
<defs>
<linearGradient id="paint0_linear_57_7401" x1="66.2326" y1="67.7212" x2="92.3429" y2="142.249" gradientUnits="userSpaceOnUse">
<stop stop-color="#FFD5D3"/>
<stop offset="1" stop-color="#FE96A6"/>
</linearGradient>
<linearGradient id="paint1_linear_57_7401" x1="123.777" y1="67.586" x2="86.7522" y2="123.321" gradientUnits="userSpaceOnUse">
<stop stop-color="#52C4FF"/>
<stop offset="1" stop-color="#2C84FF"/>
</linearGradient>
<linearGradient id="paint2_linear_57_7401" x1="87.641" y1="-13.5605" x2="166.212" y2="23.6511" gradientUnits="userSpaceOnUse">
<stop stop-color="#52C4FF"/>
<stop offset="1" stop-color="#2C84FF"/>
</linearGradient>
<linearGradient id="paint3_linear_57_7401" x1="94.2496" y1="65.56" x2="64.7725" y2="131.865" gradientUnits="userSpaceOnUse">
<stop stop-color="#52C4FF"/>
<stop offset="1" stop-color="#2C84FF"/>
</linearGradient>
<linearGradient id="paint4_linear_57_7401" x1="118.001" y1="112.046" x2="146.694" y2="37.0953" gradientUnits="userSpaceOnUse">
<stop stop-color="#FFD5D3"/>
<stop offset="1" stop-color="#FE96A6"/>
</linearGradient>
<linearGradient id="paint5_linear_57_7401" x1="125.29" y1="67.715" x2="114.375" y2="144.354" gradientUnits="userSpaceOnUse">
<stop stop-color="#52C4FF"/>
<stop offset="1" stop-color="#2C84FF"/>
</linearGradient>
<linearGradient id="paint6_linear_57_7401" x1="122.878" y1="98.5673" x2="120.618" y2="121.381" gradientUnits="userSpaceOnUse">
<stop stop-color="#FFD5D3"/>
<stop offset="1" stop-color="#FE96A6"/>
</linearGradient>
<linearGradient id="paint7_linear_57_7401" x1="78.8581" y1="39.2249" x2="103.443" y2="44.0838" gradientUnits="userSpaceOnUse">
<stop stop-color="#52C4FF"/>
<stop offset="1" stop-color="#2C84FF"/>
</linearGradient>
<linearGradient id="paint8_linear_57_7401" x1="139.426" y1="175.789" x2="93.7142" y2="7.4152" gradientUnits="userSpaceOnUse">
<stop stop-color="#002757"/>
<stop offset="1" stop-color="#061F3E"/>
</linearGradient>
<linearGradient id="paint9_linear_57_7401" x1="116.918" y1="95.9345" x2="72.7642" y2="17.9655" gradientUnits="userSpaceOnUse">
<stop stop-color="#FFD5D3"/>
<stop offset="1" stop-color="#FE96A6"/>
</linearGradient>
<linearGradient id="paint10_linear_57_7401" x1="116.898" y1="95.4268" x2="101.827" y2="50.3931" gradientUnits="userSpaceOnUse">
<stop stop-color="#FFD5D3"/>
<stop offset="1" stop-color="#FE96A6"/>
</linearGradient>
<linearGradient id="paint11_linear_57_7401" x1="94.9122" y1="57.3723" x2="143.066" y2="-9.25304" gradientUnits="userSpaceOnUse">
<stop stop-color="#FFD5D3"/>
<stop offset="1" stop-color="#FE96A6"/>
</linearGradient>
<linearGradient id="paint12_linear_57_7401" x1="172.17" y1="68.7663" x2="161.618" y2="70.3415" gradientUnits="userSpaceOnUse">
<stop stop-color="#56E281"/>
<stop offset="1" stop-color="#00966A"/>
</linearGradient>
<linearGradient id="paint13_linear_57_7401" x1="150.755" y1="74.5861" x2="157.108" y2="75.4719" gradientUnits="userSpaceOnUse">
<stop stop-color="#56E281"/>
<stop offset="1" stop-color="#00966A"/>
</linearGradient>
<linearGradient id="paint14_linear_57_7401" x1="166.875" y1="88.0523" x2="149.264" y2="133.621" gradientUnits="userSpaceOnUse">
<stop stop-color="#56E281"/>
<stop offset="1" stop-color="#00966A"/>
</linearGradient>
<linearGradient id="paint15_linear_57_7401" x1="155.073" y1="87.4951" x2="137.462" y2="133.063" gradientUnits="userSpaceOnUse">
<stop stop-color="#56E281"/>
<stop offset="1" stop-color="#00966A"/>
</linearGradient>
<linearGradient id="paint16_linear_57_7401" x1="43.8918" y1="-2.32782" x2="67.4126" y2="62.8453" gradientUnits="userSpaceOnUse">
<stop stop-color="#F4ABFF"/>
<stop offset="1" stop-color="#9552FF"/>
</linearGradient>
<linearGradient id="paint17_linear_57_7401" x1="30.2564" y1="-1.968" x2="68.3023" y2="68.9944" gradientUnits="userSpaceOnUse">
<stop stop-color="#FFF489"/>
<stop offset="1" stop-color="#FE7F20"/>
</linearGradient>
<linearGradient id="paint18_linear_57_7401" x1="27.2388" y1="-17.8479" x2="47.9685" y2="31.2497" gradientUnits="userSpaceOnUse">
<stop stop-color="#FFF489"/>
<stop offset="1" stop-color="#FE7F20"/>
</linearGradient>
<linearGradient id="paint19_linear_57_7401" x1="111.964" y1="-3.01216" x2="115.609" y2="11.4678" gradientUnits="userSpaceOnUse">
<stop stop-color="#F4ABFF"/>
<stop offset="1" stop-color="#9552FF"/>
</linearGradient>
<linearGradient id="paint20_linear_57_7401" x1="112.188" y1="-2.81859" x2="112.111" y2="5.70666" gradientUnits="userSpaceOnUse">
<stop stop-color="#FFB1E2"/>
<stop offset="1" stop-color="#FF5C8E"/>
</linearGradient>
<linearGradient id="paint21_linear_57_7401" x1="114.178" y1="-2.79915" x2="114.029" y2="5.717" gradientUnits="userSpaceOnUse">
<stop stop-color="#52C4FF"/>
<stop offset="1" stop-color="#2C84FF"/>
</linearGradient>
<linearGradient id="paint22_linear_57_7401" x1="116.634" y1="-2.7776" x2="116.484" y2="5.7323" gradientUnits="userSpaceOnUse">
<stop stop-color="#FFB1E2"/>
<stop offset="1" stop-color="#FF5C8E"/>
</linearGradient>
<linearGradient id="paint23_linear_57_7401" x1="118.612" y1="-2.75837" x2="118.535" y2="5.74525" gradientUnits="userSpaceOnUse">
<stop stop-color="#52C4FF"/>
<stop offset="1" stop-color="#2C84FF"/>
</linearGradient>
<linearGradient id="paint24_linear_57_7401" x1="111.603" y1="1.65301" x2="111.726" y2="19.2567" gradientUnits="userSpaceOnUse">
<stop stop-color="#FFB1E2"/>
<stop offset="1" stop-color="#FF5C8E"/>
</linearGradient>
<linearGradient id="paint25_linear_57_7401" x1="114.129" y1="4.55375" x2="114.063" y2="12.2562" gradientUnits="userSpaceOnUse">
<stop stop-color="#5CB30B"/>
<stop offset="1" stop-color="#A2D474"/>
</linearGradient>
<linearGradient id="paint26_linear_57_7401" x1="116.546" y1="1.61313" x2="116.669" y2="19.2168" gradientUnits="userSpaceOnUse">
<stop stop-color="#FFB1E2"/>
<stop offset="1" stop-color="#FF5C8E"/>
</linearGradient>
<linearGradient id="paint27_linear_57_7401" x1="119.072" y1="4.55375" x2="119.006" y2="12.2562" gradientUnits="userSpaceOnUse">
<stop stop-color="#5CB30B"/>
<stop offset="1" stop-color="#A2D474"/>
</linearGradient>
<linearGradient id="paint28_linear_57_7401" x1="133.5" y1="5.84971" x2="170.156" y2="60.0666" gradientUnits="userSpaceOnUse">
<stop stop-color="#31E282"/>
<stop offset="1" stop-color="#006391"/>
</linearGradient>
<clipPath id="clip0_57_7401">
<rect width="27.809" height="31.7023" fill="white" transform="translate(6.95239 45.2572)"/>
</clipPath>
<clipPath id="clip1_57_7401">
<rect width="23.6376" height="26.9469" fill="white" transform="translate(51.1687 26.5529)"/>
</clipPath>
<clipPath id="clip2_57_7401">
<rect width="13.3483" height="15.2171" fill="white" transform="translate(138.489 21.7975)"/>
</clipPath>
</defs>
</svg>
