<svg width="20" height="20" viewBox="0 0 20 20" fill="none" xmlns="http://www.w3.org/2000/svg">
<path fill-rule="evenodd" clip-rule="evenodd" d="M16.1538 7.26577C16.498 7.2941 16.7547 7.59493 16.7272 7.9391C16.7222 7.99577 16.2705 13.5883 16.0105 15.9341C15.8488 17.3899 14.8872 18.2758 13.4355 18.3024C12.3247 18.3216 11.253 18.3324 10.2055 18.3324C9.07633 18.3324 7.9755 18.3199 6.88633 18.2974C5.493 18.2699 4.52883 17.3666 4.37133 15.9399C4.10883 13.5733 3.65967 7.99493 3.6555 7.9391C3.62717 7.59493 3.88383 7.29327 4.228 7.26577C4.56717 7.2566 4.87383 7.49493 4.90133 7.83827C4.90399 7.87444 5.08762 10.1525 5.28772 12.4064L5.32791 12.8561C5.42869 13.9765 5.53085 15.053 5.61383 15.8024C5.703 16.6133 6.1405 17.0316 6.91217 17.0474C8.9955 17.0916 11.1213 17.0941 13.413 17.0524C14.233 17.0366 14.6763 16.6266 14.768 15.7966C15.0263 13.4683 15.4763 7.89493 15.4813 7.83827C15.5088 7.49493 15.813 7.25493 16.1538 7.26577ZM11.9545 1.66602C12.7195 1.66602 13.392 2.18185 13.5895 2.92102L13.8012 3.97185C13.8696 4.31633 14.1719 4.5679 14.5219 4.57342L17.2567 4.57352C17.6017 4.57352 17.8817 4.85352 17.8817 5.19852C17.8817 5.54352 17.6017 5.82352 17.2567 5.82352L14.5463 5.82339C14.5421 5.82347 14.5379 5.82352 14.5337 5.82352L14.5133 5.82268L5.86802 5.82341C5.86129 5.82348 5.85457 5.82352 5.84783 5.82352L5.835 5.82268L3.125 5.82352C2.78 5.82352 2.5 5.54352 2.5 5.19852C2.5 4.85352 2.78 4.57352 3.125 4.57352L5.85917 4.57268L5.94335 4.56735C6.25692 4.52667 6.51753 4.28852 6.58117 3.97185L6.78367 2.95852C6.9895 2.18185 7.662 1.66602 8.427 1.66602H11.9545ZM11.9545 2.91602H8.427C8.227 2.91602 8.05117 3.05018 8.00033 3.24268L7.80617 4.21768C7.78149 4.34118 7.74556 4.46019 7.69957 4.57374H12.6822C12.6361 4.46019 12.6001 4.34118 12.5753 4.21768L12.3728 3.20435C12.3303 3.05018 12.1545 2.91602 11.9545 2.91602Z" fill="#D63636"/>
</svg>
