<svg width="20" height="20" viewBox="0 0 20 20" fill="none" xmlns="http://www.w3.org/2000/svg">
<path fill-rule="evenodd" clip-rule="evenodd" d="M17.2921 17.033C17.6371 17.033 17.9171 17.313 17.9171 17.658C17.9171 18.003 17.6371 18.283 17.2921 18.283H11.248C10.903 18.283 10.623 18.003 10.623 17.658C10.623 17.313 10.903 17.033 11.248 17.033H17.2921ZM13.4303 3.0447C13.472 3.0772 14.8661 4.16054 14.8661 4.16054C15.3728 4.4622 15.7686 5.00137 15.9186 5.6397C16.0678 6.27137 15.9595 6.92304 15.612 7.47387C15.6097 7.47754 15.6074 7.48117 15.5993 7.49197L15.593 7.50032C15.5366 7.57465 15.2914 7.8847 14.0539 9.43519C14.0424 9.45551 14.0294 9.47454 14.0151 9.49304C13.9943 9.5203 13.9716 9.54535 13.9473 9.56817C13.8629 9.67445 13.7738 9.78612 13.68 9.90353L13.4901 10.1414C13.0982 10.6322 12.6333 11.2142 12.0818 11.9046L11.7988 12.2588C10.734 13.5914 9.37044 15.2977 7.62364 17.483C7.24114 17.9597 6.66781 18.2372 6.05198 18.2447L3.01948 18.283H3.01114C2.72198 18.283 2.47031 18.0847 2.40281 17.8022L1.72031 14.9097C1.57948 14.3105 1.71948 13.6922 2.10364 13.2122L9.95364 3.39387C9.95698 3.39054 9.95948 3.38637 9.96281 3.38304C10.8236 2.35387 12.3803 2.2022 13.4303 3.0447ZM9.07841 6.48917L3.07948 13.993C2.93698 14.1714 2.88448 14.4014 2.93698 14.6222L3.50448 17.0264L6.03698 16.9947C6.27781 16.9922 6.50031 16.8847 6.64781 16.7014C7.40738 15.751 8.36202 14.5566 9.34352 13.3284L9.69077 12.8938L10.0386 12.4585C10.9591 11.3066 11.8685 10.1684 12.6294 9.21572L9.07841 6.48917ZM10.9253 4.18054L9.85925 5.5125L13.4099 8.23827C14.0933 7.38225 14.5429 6.81845 14.5845 6.7647C14.7211 6.54304 14.7745 6.2297 14.7028 5.92804C14.6295 5.61887 14.437 5.35637 14.1595 5.18887C14.1003 5.14804 12.6961 4.05804 12.6528 4.02387C12.1245 3.60054 11.3536 3.67387 10.9253 4.18054Z" fill="#2264D1"/>
</svg>
