<svg width="26" height="26" viewBox="0 0 26 26" fill="none" xmlns="http://www.w3.org/2000/svg">
<path d="M8.52004 2.33325H17.48C20.8934 2.33325 23.6667 5.10659 23.6667 8.51992V17.4799C23.6667 19.1207 23.0149 20.6943 21.8547 21.8546C20.6945 23.0148 19.1208 23.6666 17.48 23.6666H8.52004C5.10671 23.6666 2.33337 20.8933 2.33337 17.4799V8.51992C2.33337 6.87911 2.98518 5.30551 4.14541 4.14528C5.30563 2.98506 6.87924 2.33325 8.52004 2.33325ZM8.30671 4.46659C7.28828 4.46659 6.31156 4.87116 5.59142 5.5913C4.87128 6.31144 4.46671 7.28815 4.46671 8.30659V17.6933C4.46671 19.8159 6.18404 21.5333 8.30671 21.5333H17.6934C18.7118 21.5333 19.6885 21.1287 20.4087 20.4085C21.1288 19.6884 21.5334 18.7117 21.5334 17.6933V8.30659C21.5334 6.18392 19.816 4.46659 17.6934 4.46659H8.30671ZM18.6 6.06659C18.9537 6.06659 19.2928 6.20706 19.5429 6.45711C19.7929 6.70716 19.9334 7.0463 19.9334 7.39992C19.9334 7.75354 19.7929 8.09268 19.5429 8.34273C19.2928 8.59278 18.9537 8.73325 18.6 8.73325C18.2464 8.73325 17.9073 8.59278 17.6572 8.34273C17.4072 8.09268 17.2667 7.75354 17.2667 7.39992C17.2667 7.0463 17.4072 6.70716 17.6572 6.45711C17.9073 6.20706 18.2464 6.06659 18.6 6.06659ZM13 7.66659C14.4145 7.66659 15.7711 8.22849 16.7713 9.22868C17.7715 10.2289 18.3334 11.5854 18.3334 12.9999C18.3334 14.4144 17.7715 15.771 16.7713 16.7712C15.7711 17.7713 14.4145 18.3333 13 18.3333C11.5856 18.3333 10.229 17.7713 9.22881 16.7712C8.22861 15.771 7.66671 14.4144 7.66671 12.9999C7.66671 11.5854 8.22861 10.2289 9.22881 9.22868C10.229 8.22849 11.5856 7.66659 13 7.66659ZM13 9.79992C12.1513 9.79992 11.3374 10.1371 10.7373 10.7372C10.1372 11.3373 9.80004 12.1512 9.80004 12.9999C9.80004 13.8486 10.1372 14.6625 10.7373 15.2627C11.3374 15.8628 12.1513 16.1999 13 16.1999C13.8487 16.1999 14.6627 15.8628 15.2628 15.2627C15.8629 14.6625 16.2 13.8486 16.2 12.9999C16.2 12.1512 15.8629 11.3373 15.2628 10.7372C14.6627 10.1371 13.8487 9.79992 13 9.79992Z" fill="#2264D1"/>
</svg>
