<svg width="26" height="19" viewBox="0 0 26 19" fill="none" xmlns="http://www.w3.org/2000/svg">
<path d="M13.0816 0.198486H13.224C14.5392 0.203286 21.2032 0.251287 23 0.734487C23.5432 0.881956 24.0382 1.1694 24.4355 1.5681C24.8328 1.9668 25.1185 2.46278 25.264 3.00649C25.4256 3.61449 25.5392 4.41929 25.616 5.24969L25.632 5.41609L25.6672 5.83209L25.68 5.99849C25.784 7.46089 25.7968 8.83049 25.7984 9.12969V9.24969C25.7968 9.56009 25.7824 11.0225 25.6672 12.5457L25.6544 12.7137L25.64 12.8801C25.56 13.7953 25.4416 14.7041 25.264 15.3729C25.1189 15.9168 24.8334 16.413 24.436 16.8118C24.0386 17.2106 23.5434 17.4979 23 17.6449C21.144 18.1441 14.0896 18.1793 13.112 18.1809H12.8848C12.3904 18.1809 10.3456 18.1713 8.20161 18.0977L7.92961 18.0881L7.79041 18.0817L7.51681 18.0705L7.24321 18.0593C5.46721 17.9809 3.77601 17.8545 2.99681 17.6433C2.4536 17.4964 1.95852 17.2093 1.56117 16.8109C1.16383 16.4124 0.878167 15.9165 0.732812 15.3729C0.555212 14.7057 0.436812 13.7953 0.356812 12.8801L0.344012 12.7121L0.331212 12.5457C0.252248 11.4615 0.208492 10.3751 0.200012 9.28809L0.200012 9.09129C0.203212 8.74729 0.216012 7.55849 0.302412 6.24649L0.313612 6.08169L0.318412 5.99849L0.331212 5.83209L0.366412 5.41609L0.382412 5.24969C0.459212 4.41929 0.572812 3.61289 0.734412 3.00649C0.879522 2.46256 1.16507 1.96634 1.56243 1.56758C1.95979 1.16881 2.455 0.881514 2.99841 0.734487C3.77761 0.526487 5.46881 0.398486 7.24481 0.318486L7.51681 0.307286L7.79201 0.297687L7.92961 0.292887L8.20321 0.281687C9.72594 0.232686 11.2493 0.205483 12.7728 0.200086H13.0816V0.198486ZM10.44 5.33449V13.0433L17.0912 9.19049L10.44 5.33449Z" fill="#2264D1"/>
</svg>
