<svg width="20" height="20" viewBox="0 0 20 20" fill="none" xmlns="http://www.w3.org/2000/svg">
<path fill-rule="evenodd" clip-rule="evenodd" d="M16.5333 15.1609C16.5333 17.9075 12.7666 18.225 9.93409 18.225L9.73139 18.2249C7.92676 18.2205 3.33325 18.1066 3.33325 15.1442C3.33325 12.4536 6.94855 12.094 9.75949 12.0805L10.1368 12.0802C11.9413 12.0846 16.5333 12.1985 16.5333 15.1609ZM9.93409 13.33C6.38325 13.33 4.58325 13.94 4.58325 15.1442C4.58325 16.3592 6.38325 16.975 9.93409 16.975C13.4841 16.975 15.2833 16.365 15.2833 15.1609C15.2833 13.9459 13.4841 13.33 9.93409 13.33ZM9.93409 1.66638C12.3741 1.66638 14.3583 3.65138 14.3583 6.09138C14.3583 8.53138 12.3741 10.5155 9.93409 10.5155H9.90742C7.47242 10.508 5.49992 8.52222 5.50823 6.08888C5.50823 3.65138 7.49325 1.66638 9.93409 1.66638ZM9.93409 2.85638C8.14992 2.85638 6.69823 4.30721 6.69823 6.09138C6.69242 7.86972 8.13325 9.31972 9.90992 9.32638L9.93409 9.92138V9.32638C11.7174 9.32638 13.1683 7.87471 13.1683 6.09138C13.1683 4.30721 11.7174 2.85638 9.93409 2.85638Z" fill="#37474F"/>
</svg>
