<svg width="21" height="20" viewBox="0 0 21 20" fill="none" xmlns="http://www.w3.org/2000/svg">
<path fill-rule="evenodd" clip-rule="evenodd" d="M10.8124 1.66846C13.2457 1.66846 15.2274 3.65013 15.2274 6.08596L15.2273 7.3998C16.7066 7.91464 17.7708 9.32297 17.7708 10.9758V14.55C17.7708 16.6375 16.0733 18.335 13.9858 18.335H7.61831C5.53081 18.335 3.83331 16.6375 3.83331 14.55V10.9758C3.83331 9.32328 4.89708 7.91517 6.37598 7.40009L6.37656 6.08596C6.38156 4.88596 6.84573 3.77846 7.68323 2.94846C8.52156 2.11763 9.62823 1.6368 10.8124 1.66846ZM13.9858 8.4408H7.61831C6.21998 8.4408 5.08331 9.57746 5.08331 10.9758V14.55C5.08331 15.9483 6.21998 17.085 7.61831 17.085H13.9858C15.3833 17.085 16.5208 15.9483 16.5208 14.55V10.9758C16.5208 9.57746 15.3833 8.4408 13.9858 8.4408ZM10.8019 11.2123C11.1469 11.2123 11.4269 11.4923 11.4269 11.8373V13.6881C11.4269 14.0331 11.1469 14.3131 10.8019 14.3131C10.4569 14.3131 10.1769 14.0331 10.1769 13.6881V11.8373C10.1769 11.4923 10.4569 11.2123 10.8019 11.2123ZM10.8099 2.91846H10.7966C9.9524 2.91846 9.16156 3.24346 8.56406 3.83596C7.9624 4.43096 7.6299 5.22513 7.62656 6.0718L7.62581 7.19033H13.9766L13.9774 6.08596C13.9774 4.3393 12.5566 2.91846 10.8099 2.91846Z" fill="#37474F"/>
</svg>
