<svg width="26" height="26" viewBox="0 0 26 26" fill="none" xmlns="http://www.w3.org/2000/svg">
<path fill-rule="evenodd" clip-rule="evenodd" d="M11.1846 21.7815C11.7457 22.4066 12.4662 22.75 13.2137 22.75H13.2147C13.9655 22.75 14.6892 22.4066 15.2514 21.7804C15.5526 21.4478 16.0661 21.4208 16.3987 21.7208C16.7323 22.0209 16.7594 22.5355 16.4593 22.8681C15.584 23.8398 14.4324 24.375 13.2147 24.375H13.2126C11.9982 24.3739 10.8487 23.8388 9.97666 22.867C9.67658 22.5344 9.70366 22.0198 10.0373 21.7208C10.371 21.4197 10.8845 21.4468 11.1846 21.7815ZM13.2676 1.08334C18.083 1.08334 21.3179 4.83384 21.3179 8.33626C21.3179 10.1378 21.7761 10.9016 22.2625 11.7119C22.7435 12.5114 23.2884 13.4193 23.2884 15.1353C22.9104 19.5195 18.3333 19.877 13.2676 19.877C8.20194 19.877 3.62378 19.5195 3.25001 15.2046C3.24678 13.4193 3.7917 12.5114 4.2727 11.7119L4.4425 11.4261C4.86059 10.7075 5.21736 9.92589 5.21736 8.33626C5.21736 4.83384 8.45219 1.08334 13.2676 1.08334ZM13.2676 2.70834C9.48136 2.70834 6.84236 5.67451 6.84236 8.33626C6.84236 10.5885 6.21728 11.6296 5.66478 12.5483C5.2217 13.286 4.87178 13.8688 4.87178 15.1353C5.0527 17.1784 6.40145 18.252 13.2676 18.252C20.0959 18.252 21.4869 17.1308 21.6667 15.0648C21.6634 13.8688 21.3135 13.286 20.8704 12.5483C20.3179 11.6296 19.6929 10.5885 19.6929 8.33626C19.6929 5.67451 17.0539 2.70834 13.2676 2.70834Z" fill="black"/>
</svg>
