<svg width="100" height="100" viewBox="0 0 100 100" fill="none" xmlns="http://www.w3.org/2000/svg">
<path fill-rule="evenodd" clip-rule="evenodd" d="M58.2313 8.33398C58.4102 8.33398 58.5857 8.34905 58.7564 8.37799L59.3267 8.38148C60.1767 8.38148 60.9892 8.72732 61.5809 9.33982L82.685 31.3273C83.2434 31.9065 83.5564 32.6857 83.5564 33.4898V71.6815C83.6309 82.1357 75.4892 90.6773 65.0184 91.1023L31.6059 91.1065H31.1517C20.9436 90.8758 12.7565 82.6199 12.5071 72.5114L12.5059 27.044C12.7475 16.7065 21.285 8.38148 31.5475 8.38148L57.7061 8.37799C57.8769 8.34905 58.0523 8.33398 58.2313 8.33398ZM55.1059 14.6298L31.5559 14.6315C24.6517 14.6315 18.9184 20.2232 18.7559 27.119V71.6815C18.6017 78.819 24.2267 84.6982 31.2934 84.8565H64.8934C71.8475 84.569 77.3559 78.7898 77.3062 71.7065L77.3059 37.4298L68.9313 37.434C61.3063 37.4132 55.1063 31.1965 55.1063 23.5798L55.1059 14.6298ZM57.4529 60.8677C59.1779 60.8677 60.5779 62.2677 60.5779 63.9927C60.5779 65.7177 59.1779 67.1177 57.4529 67.1177H34.9529C33.2279 67.1177 31.8279 65.7177 31.8279 63.9927C31.8279 62.2677 33.2279 60.8677 34.9529 60.8677H57.4529ZM48.9325 45.2344C50.6575 45.2344 52.0575 46.6344 52.0575 48.3594C52.0575 50.0844 50.6575 51.4844 48.9325 51.4844H34.9492C33.2242 51.4844 31.8242 50.0844 31.8242 48.3594C31.8242 46.6344 33.2242 45.2344 34.9492 45.2344H48.9325ZM61.3559 18.134L61.3563 23.5798C61.3563 27.7632 64.7604 31.1715 68.9396 31.184L73.8809 31.1798L61.3559 18.134Z" fill="#1D57EB"/>
</svg>
