<svg width="80" height="84" viewBox="0 0 80 84" fill="none" xmlns="http://www.w3.org/2000/svg">
<path d="M23.3287 58.0503C25.1695 58.0503 26.6639 59.4878 26.6639 61.2586V65.1794C26.6639 71.8335 32.2948 77.2501 39.2077 77.2501H60.3192C67.2625 77.2501 72.9107 71.8168 72.9107 65.1377C72.9107 63.3669 74.4051 61.9294 76.2459 61.9294C78.0868 61.9294 79.5811 63.3669 79.5811 65.1377C79.5811 75.3543 70.9399 83.6667 60.3192 83.6667H39.2077C28.613 83.6667 19.9935 75.3751 19.9935 65.1794V61.2586C19.9935 59.4878 21.4878 58.0503 23.3287 58.0503ZM53.4218 38.7884C54.7154 38.7884 55.8805 39.5717 56.3739 40.7758C56.8673 41.9758 56.5895 43.3592 55.6773 44.2758L43.5621 56.3924C42.9402 57.0132 42.1234 57.3257 41.3066 57.3257C40.4898 57.3257 39.6688 57.0132 39.0469 56.384C37.803 55.1257 37.8072 53.0966 39.0552 51.8466L45.6891 45.2091H3.60921C1.84707 45.2091 0.416626 43.7717 0.416626 42.0008C0.416626 40.23 1.84707 38.7884 3.60921 38.7884H53.4218ZM60.3647 0.333336C70.9594 0.333336 79.5833 8.62492 79.5833 18.8207V50.5453C79.5833 52.3162 78.0846 53.7495 76.2481 53.7495C74.4029 53.7495 72.9085 52.3162 72.9085 50.5453V18.8207C72.9085 12.1666 67.282 6.74994 60.3647 6.74994H39.2532C32.3099 6.74994 26.6617 12.1832 26.6617 18.8623V22.7414C26.6617 24.5123 25.1717 25.9456 23.3265 25.9456C21.4857 25.9456 19.9913 24.5123 19.9913 22.7414V18.8623C19.9913 8.64575 28.6325 0.333336 39.2532 0.333336H60.3647ZM39.0378 27.6243C40.2733 26.3618 42.2925 26.3535 43.553 27.5993L46.6087 30.6326C47.8609 31.8743 47.8733 33.9076 46.6295 35.1659C46.0075 35.8034 45.1866 36.1201 44.3615 36.1201C43.553 36.1201 42.7403 35.8117 42.1143 35.1909L39.0626 32.1618C37.8105 30.9159 37.798 28.8868 39.0378 27.6243Z" fill="#2264D1"/>
</svg>
