<svg width="20" height="20" viewBox="0 0 20 20" fill="none" xmlns="http://www.w3.org/2000/svg">
<path fill-rule="evenodd" clip-rule="evenodd" d="M9.0042 12.3482L12.0517 17.2923C12.185 17.509 12.3934 17.5065 12.4775 17.4948C12.5617 17.4832 12.7642 17.4315 12.8375 17.1857L16.6484 4.31482C16.715 4.08732 16.5925 3.93232 16.5375 3.87732C16.4842 3.82232 16.3317 3.70482 16.1109 3.76732L3.23087 7.53899C2.9867 7.61065 2.93337 7.81565 2.9217 7.89982C2.91004 7.98565 2.9067 8.19815 3.12254 8.33399L8.12337 11.4615L12.5417 6.99649C12.7842 6.75149 13.18 6.74899 13.4259 6.99149C13.6717 7.23399 13.6734 7.63065 13.4309 7.87565L9.0042 12.3482ZM12.4125 18.7498C11.8325 18.7498 11.3009 18.4548 10.9875 17.9482L7.7567 12.7057L2.46004 9.39315C1.8892 9.03565 1.59087 8.39899 1.68337 7.72982C1.77504 7.06065 2.2342 6.52899 2.8792 6.33982L15.7592 2.56815C16.3517 2.39482 16.9867 2.55899 17.4234 2.99399C17.86 3.43315 18.0225 4.07482 17.8459 4.66982L14.035 17.5398C13.8442 18.1873 13.3109 18.6448 12.6434 18.734C12.565 18.744 12.4892 18.7498 12.4125 18.7498Z" fill="black"/>
</svg>
